<?xml version="1.0" encoding="UTF-8"?>
<svg version="1.1" xmlns="http://www.w3.org/2000/svg" width="351" height="275">
<path d="M0 0 C5.07408081 -0.16711045 8.08248831 0.06524876 12.296875 3.1640625 C13.01875 3.3084375 13.740625 3.4528125 14.484375 3.6015625 C16.296875 4.1640625 16.296875 4.1640625 17.296875 5.9140625 C17.791875 7.0278125 17.791875 7.0278125 18.296875 8.1640625 C18.9671875 8.89109375 19.6375 9.618125 20.328125 10.3671875 C23.91832775 15.4675549 23.08186628 22.15717268 22.296875 28.1640625 C21.39738657 31.62765281 20.30318746 34.96232812 19.1484375 38.34765625 C17.94545836 42.32631661 17.731951 44.29293472 19.296875 48.1640625 C22.31066257 50.25631417 22.31066257 50.25631417 24.51953125 51.28515625 C29.30643777 53.65230783 31.09724358 57.29796423 32.76953125 62.125 C33.47392014 64.84863705 33.50645042 67.36972353 33.296875 70.1640625 C33.956875 70.1640625 34.616875 70.1640625 35.296875 70.1640625 C35.296875 71.1540625 35.296875 72.1440625 35.296875 73.1640625 C65.986875 73.1640625 96.676875 73.1640625 128.296875 73.1640625 C127.966875 73.8240625 127.636875 74.4840625 127.296875 75.1640625 C128.05871094 75.31101562 128.82054687 75.45796875 129.60546875 75.609375 C136.09873235 77.01989668 141.01565398 78.78429004 146.359375 82.76171875 C148.25860923 84.23374937 148.25860923 84.23374937 150.484375 85.16015625 C152.296875 86.1640625 152.296875 86.1640625 153.296875 89.1640625 C153.77125 89.6384375 154.245625 90.1128125 154.734375 90.6015625 C157.21389113 93.08107863 158.22601054 95.2286516 158.4921875 98.7421875 C158.46898437 99.62390625 158.44578125 100.505625 158.421875 101.4140625 C158.40382813 102.30609375 158.38578125 103.198125 158.3671875 104.1171875 C158.34398437 104.79265625 158.32078125 105.468125 158.296875 106.1640625 C158.956875 106.1640625 159.616875 106.1640625 160.296875 106.1640625 C160.296875 110.1240625 160.296875 114.0840625 160.296875 118.1640625 C160.956875 118.4940625 161.616875 118.8240625 162.296875 119.1640625 C163.4725 120.123125 163.4725 120.123125 164.671875 121.1015625 C166.85961024 122.82049733 168.7741966 124.0428721 171.296875 125.1640625 C171.626875 123.1840625 171.956875 121.2040625 172.296875 119.1640625 C172.626875 119.1640625 172.956875 119.1640625 173.296875 119.1640625 C173.25881319 128.46560085 173.19944489 137.7666893 173.11297226 147.06790447 C173.0734854 151.38700046 173.04130299 155.70589221 173.02587891 160.02514648 C173.01072006 164.19455874 172.97628889 168.36340955 172.92856598 172.53257179 C172.91374409 174.12210011 172.90583352 175.71170858 172.90499115 177.30130577 C172.90262202 179.5304975 172.87555055 181.75813689 172.84277344 183.98706055 C172.83389099 185.25502975 172.82500854 186.52299896 172.81585693 187.82939148 C172.20599862 191.74798037 171.10423729 193.4081233 168.296875 196.1640625 C164.41311784 197.45864822 160.74127383 197.29510031 156.69458008 197.27758789 C155.81632065 197.27773392 154.93806122 197.27787994 154.03318787 197.2780304 C151.12756895 197.27733322 148.22201398 197.26954989 145.31640625 197.26171875 C143.30287206 197.25985388 141.28933742 197.2584303 139.27580261 197.25743103 C133.97395578 197.25361129 128.67213631 197.24378562 123.37030029 197.23272705 C117.96106333 197.22250127 112.55182196 197.2179309 107.14257812 197.21289062 C96.52733173 197.20216289 85.91210564 197.18509296 75.296875 197.1640625 C77.13155336 199.03640288 78.9671292 200.72520555 80.984375 202.4140625 C83.296875 205.1640625 83.296875 205.1640625 83.609375 208.9765625 C83.4546875 210.554375 83.4546875 210.554375 83.296875 212.1640625 C76.68354974 214.5910479 70.34822464 214.42002642 63.36328125 214.359375 C62.13020737 214.3565451 60.89713348 214.35371521 59.62669373 214.35079956 C55.70415375 214.3396411 51.7818455 214.31454401 47.859375 214.2890625 C45.19336272 214.27789646 42.52735261 214.26990226 39.86132812 214.26171875 C33.33976523 214.23971591 26.81833668 214.20628128 20.296875 214.1640625 C18.66331179 209.26337287 19.24157806 204.30667774 19.296875 199.1640625 C11.706875 199.1640625 4.116875 199.1640625 -3.703125 199.1640625 C-3.703125 199.8240625 -3.703125 200.4840625 -3.703125 201.1640625 C-6.54609346 201.95699928 -9.18997107 202.37940059 -12.140625 202.4765625 C-13.25244141 202.53263672 -13.25244141 202.53263672 -14.38671875 202.58984375 C-16.703125 202.1640625 -16.703125 202.1640625 -18.96266174 200.16859436 C-22.23921809 197.7719333 -23.85234018 197.66514932 -27.86694336 197.66577148 C-29.08848618 197.65573593 -30.31002899 197.64570038 -31.56858826 197.63536072 C-33.5359066 197.64763451 -33.5359066 197.64763451 -35.54296875 197.66015625 C-36.91151734 197.65278376 -38.28005576 197.64323288 -39.64857483 197.63160706 C-43.24498467 197.60494844 -46.84106308 197.59930956 -50.43756104 197.60070801 C-56.18965415 197.60293905 -61.94133642 197.58867633 -67.69326973 197.54512215 C-69.69506304 197.53532945 -71.69692009 197.54440389 -73.69871521 197.55381775 C-74.92341019 197.54693436 -76.14810516 197.54005096 -77.40991211 197.53295898 C-78.48293076 197.53392075 -79.5559494 197.53488251 -80.66148376 197.53587341 C-84.20473498 197.10274558 -86.61021097 195.90708436 -89.703125 194.1640625 C-90.363125 193.8340625 -91.023125 193.5040625 -91.703125 193.1640625 C-91.66507829 184.62751612 -91.60573266 176.09149656 -91.51922226 167.55531693 C-91.47971991 163.59154865 -91.44754525 159.62800344 -91.43212891 155.6640625 C-91.41698003 151.83827431 -91.38256725 148.01309924 -91.33481598 144.18758392 C-91.31998367 142.72841472 -91.31208292 141.26915798 -91.31124115 139.80991364 C-91.30887505 137.76486421 -91.28183018 135.7215142 -91.24902344 133.67675781 C-91.24014099 132.51315735 -91.23125854 131.34955688 -91.22210693 130.1506958 C-90.59157045 126.52208923 -89.56425149 125.40960036 -86.703125 123.1640625 C-84.73433177 122.10394307 -82.73876633 121.08935401 -80.703125 120.1640625 C-80.703125 119.5040625 -80.703125 118.8440625 -80.703125 118.1640625 C-78.063125 118.1640625 -75.423125 118.1640625 -72.703125 118.1640625 C-72.703125 112.8840625 -72.703125 107.6040625 -72.703125 102.1640625 C-72.043125 102.1640625 -71.383125 102.1640625 -70.703125 102.1640625 C-70.8578125 100.6790625 -70.8578125 100.6790625 -71.015625 99.1640625 C-71.02536065 94.38385754 -68.79628339 90.70491487 -65.703125 87.1640625 C-64.39221532 86.45431746 -63.05678069 85.78843299 -61.703125 85.1640625 C-60.41364702 84.20958292 -59.14312544 83.22907303 -57.890625 82.2265625 C-54.30579355 79.47572561 -50.92408736 77.74692339 -46.703125 76.1640625 C-46.703125 75.5040625 -46.703125 74.8440625 -46.703125 74.1640625 C-46.084375 74.0609375 -45.465625 73.9578125 -44.828125 73.8515625 C-42.33786016 73.28880877 -42.33786016 73.28880877 -40.703125 70.1640625 C-39.713125 68.6790625 -39.713125 68.6790625 -38.703125 67.1640625 C-38.3952864 65.08373281 -38.3952864 65.08373281 -38.328125 62.8515625 C-37.91111744 58.35958632 -36.6822889 55.65394021 -33.703125 52.1640625 C-31.765625 50.9765625 -31.765625 50.9765625 -29.703125 50.1640625 C-28.02978461 49.17527045 -26.36160677 48.17757914 -24.703125 47.1640625 C-25.033125 46.5040625 -25.363125 45.8440625 -25.703125 45.1640625 C-24.383125 45.1640625 -23.063125 45.1640625 -21.703125 45.1640625 C-21.76588623 44.58430664 -21.82864746 44.00455078 -21.89331055 43.40722656 C-22.60669757 36.58399233 -23.1355598 29.76377689 -23.515625 22.9140625 C-23.59232422 21.86476563 -23.66902344 20.81546875 -23.74804688 19.734375 C-24.19820647 11.16507186 -24.19820647 11.16507186 -21.84375 7.5078125 C-19.79975058 5.26985693 -18.48510649 4.24095856 -15.703125 3.1640625 C-14.713125 2.5040625 -13.723125 1.8440625 -12.703125 1.1640625 C-8.52521609 0.35147838 -4.24217133 0.25747283 0 0 Z M-22.703125 12.1640625 C-21.703125 14.1640625 -21.703125 14.1640625 -21.703125 14.1640625 Z M-20.703125 42.1640625 C-19.703125 44.1640625 -19.703125 44.1640625 -19.703125 44.1640625 Z M15.296875 45.1640625 C14.966875 45.8240625 14.636875 46.4840625 14.296875 47.1640625 C14.956875 47.1640625 15.616875 47.1640625 16.296875 47.1640625 C15.966875 46.5040625 15.636875 45.8440625 15.296875 45.1640625 Z M29.296875 59.1640625 C30.296875 61.1640625 30.296875 61.1640625 30.296875 61.1640625 Z M155.296875 94.1640625 C156.296875 96.1640625 156.296875 96.1640625 156.296875 96.1640625 Z M-69.703125 96.1640625 C-68.703125 98.1640625 -68.703125 98.1640625 -68.703125 98.1640625 Z M156.296875 97.1640625 C157.296875 99.1640625 157.296875 99.1640625 157.296875 99.1640625 Z M171.296875 128.1640625 C172.296875 130.1640625 172.296875 130.1640625 172.296875 130.1640625 Z M-90.703125 190.1640625 C-89.703125 192.1640625 -89.703125 192.1640625 -89.703125 192.1640625 Z M-4.703125 197.1640625 C-4.703125 197.4940625 -4.703125 197.8240625 -4.703125 198.1640625 C3.876875 198.1640625 12.456875 198.1640625 21.296875 198.1640625 C21.296875 197.8340625 21.296875 197.5040625 21.296875 197.1640625 C12.716875 197.1640625 4.136875 197.1640625 -4.703125 197.1640625 Z " fill="#46749E" transform="translate(101.703125,41.8359375)"/>
<path d="M0 0 C5.07408081 -0.16711045 8.08248831 0.06524876 12.296875 3.1640625 C13.01875 3.3084375 13.740625 3.4528125 14.484375 3.6015625 C16.296875 4.1640625 16.296875 4.1640625 17.296875 5.9140625 C17.791875 7.0278125 17.791875 7.0278125 18.296875 8.1640625 C18.9671875 8.89109375 19.6375 9.618125 20.328125 10.3671875 C23.91832775 15.4675549 23.08186628 22.15717268 22.296875 28.1640625 C21.39738657 31.62765281 20.30318746 34.96232812 19.1484375 38.34765625 C17.94545836 42.32631661 17.731951 44.29293472 19.296875 48.1640625 C22.31066257 50.25631417 22.31066257 50.25631417 24.51953125 51.28515625 C28.44854654 53.2280759 30.35112991 55.90520475 31.984375 59.8515625 C32.95522047 62.72651779 33.48320811 65.3423231 33.71484375 68.36328125 C34.28592525 74.00858128 35.93703114 79.20356763 37.65625 84.58984375 C39.35391653 90.25848889 39.79733536 94.8284237 37.28125 100.421875 C34.61051214 104.4617886 31.97178915 107.98575837 28.296875 111.1640625 C27.636875 111.1640625 26.976875 111.1640625 26.296875 111.1640625 C26.296875 114.1340625 26.296875 117.1040625 26.296875 120.1640625 C27.70839844 120.11185547 27.70839844 120.11185547 29.1484375 120.05859375 C31.01628906 120.01798828 31.01628906 120.01798828 32.921875 119.9765625 C34.15164062 119.94175781 35.38140625 119.90695313 36.6484375 119.87109375 C41.54609726 120.26437478 44.71132907 122.10703188 48.734375 124.7890625 C50.84493051 127.99710687 50.77083093 130.11491047 50.15625 133.8515625 C48.04465177 139.53368138 42.52445109 142.75788052 37.296875 145.3515625 C30.54152013 148.06062119 23.37922523 149.56911784 16.296875 151.1640625 C15.52424316 151.33969727 14.75161133 151.51533203 13.95556641 151.69628906 C-11.44523022 157.4170489 -11.44523022 157.4170489 -22.703125 157.1640625 C-19.35147659 165.22896648 -15.92487671 173.08676707 -11.453125 180.6015625 C-4.703125 192.04778343 -4.703125 192.04778343 -4.703125 198.1640625 C3.876875 197.8340625 12.456875 197.5040625 21.296875 197.1640625 C22.286875 194.8540625 23.276875 192.5440625 24.296875 190.1640625 C25.286875 190.1640625 26.276875 190.1640625 27.296875 190.1640625 C27.626875 194.1240625 27.956875 198.0840625 28.296875 202.1640625 C42.156875 202.4940625 56.016875 202.8240625 70.296875 203.1640625 C70.296875 196.86731057 70.23371477 195.18116378 67.296875 190.1640625 C67.956875 190.1640625 68.616875 190.1640625 69.296875 190.1640625 C72.296875 193.62560096 72.296875 193.62560096 72.296875 196.1640625 C73.286875 196.4940625 74.276875 196.8240625 75.296875 197.1640625 C76.671875 198.4140625 76.671875 198.4140625 78.296875 200.1640625 C79.6271875 201.2778125 79.6271875 201.2778125 80.984375 202.4140625 C83.296875 205.1640625 83.296875 205.1640625 83.609375 208.9765625 C83.4546875 210.554375 83.4546875 210.554375 83.296875 212.1640625 C76.68354974 214.5910479 70.34822464 214.42002642 63.36328125 214.359375 C62.13020737 214.3565451 60.89713348 214.35371521 59.62669373 214.35079956 C55.70415375 214.3396411 51.7818455 214.31454401 47.859375 214.2890625 C45.19336272 214.27789646 42.52735261 214.26990226 39.86132812 214.26171875 C33.33976523 214.23971591 26.81833668 214.20628128 20.296875 214.1640625 C18.66331179 209.26337287 19.24157806 204.30667774 19.296875 199.1640625 C11.706875 199.1640625 4.116875 199.1640625 -3.703125 199.1640625 C-3.703125 199.8240625 -3.703125 200.4840625 -3.703125 201.1640625 C-6.54609346 201.95699928 -9.18997107 202.37940059 -12.140625 202.4765625 C-13.25244141 202.53263672 -13.25244141 202.53263672 -14.38671875 202.58984375 C-16.703125 202.1640625 -16.703125 202.1640625 -18.96266174 200.16859436 C-22.23921809 197.7719333 -23.85234018 197.66514932 -27.86694336 197.66577148 C-29.08848618 197.65573593 -30.31002899 197.64570038 -31.56858826 197.63536072 C-33.5359066 197.64763451 -33.5359066 197.64763451 -35.54296875 197.66015625 C-36.91151734 197.65278376 -38.28005576 197.64323288 -39.64857483 197.63160706 C-43.24498467 197.60494844 -46.84106308 197.59930956 -50.43756104 197.60070801 C-56.18965415 197.60293905 -61.94133642 197.58867633 -67.69326973 197.54512215 C-69.69506304 197.53532945 -71.69692009 197.54440389 -73.69871521 197.55381775 C-74.92341019 197.54693436 -76.14810516 197.54005096 -77.40991211 197.53295898 C-78.48293076 197.53392075 -79.5559494 197.53488251 -80.66148376 197.53587341 C-84.20473498 197.10274558 -86.61021097 195.90708436 -89.703125 194.1640625 C-90.363125 193.8340625 -91.023125 193.5040625 -91.703125 193.1640625 C-91.66507829 184.62751612 -91.60573266 176.09149656 -91.51922226 167.55531693 C-91.47971991 163.59154865 -91.44754525 159.62800344 -91.43212891 155.6640625 C-91.41698003 151.83827431 -91.38256725 148.01309924 -91.33481598 144.18758392 C-91.31998367 142.72841472 -91.31208292 141.26915798 -91.31124115 139.80991364 C-91.30887505 137.76486421 -91.28183018 135.7215142 -91.24902344 133.67675781 C-91.24014099 132.51315735 -91.23125854 131.34955688 -91.22210693 130.1506958 C-90.59157045 126.52208923 -89.56425149 125.40960036 -86.703125 123.1640625 C-84.73433177 122.10394307 -82.73876633 121.08935401 -80.703125 120.1640625 C-80.703125 119.5040625 -80.703125 118.8440625 -80.703125 118.1640625 C-78.063125 118.1640625 -75.423125 118.1640625 -72.703125 118.1640625 C-72.703125 112.8840625 -72.703125 107.6040625 -72.703125 102.1640625 C-72.043125 102.1640625 -71.383125 102.1640625 -70.703125 102.1640625 C-70.8578125 100.6790625 -70.8578125 100.6790625 -71.015625 99.1640625 C-71.02536065 94.38385754 -68.79628339 90.70491487 -65.703125 87.1640625 C-64.39221532 86.45431746 -63.05678069 85.78843299 -61.703125 85.1640625 C-60.41364702 84.20958292 -59.14312544 83.22907303 -57.890625 82.2265625 C-54.30579355 79.47572561 -50.92408736 77.74692339 -46.703125 76.1640625 C-46.703125 75.5040625 -46.703125 74.8440625 -46.703125 74.1640625 C-46.084375 74.0609375 -45.465625 73.9578125 -44.828125 73.8515625 C-42.33786016 73.28880877 -42.33786016 73.28880877 -40.703125 70.1640625 C-39.713125 68.6790625 -39.713125 68.6790625 -38.703125 67.1640625 C-38.3952864 65.08373281 -38.3952864 65.08373281 -38.328125 62.8515625 C-37.91111744 58.35958632 -36.6822889 55.65394021 -33.703125 52.1640625 C-31.765625 50.9765625 -31.765625 50.9765625 -29.703125 50.1640625 C-28.02978461 49.17527045 -26.36160677 48.17757914 -24.703125 47.1640625 C-25.033125 46.5040625 -25.363125 45.8440625 -25.703125 45.1640625 C-24.383125 45.1640625 -23.063125 45.1640625 -21.703125 45.1640625 C-21.76588623 44.58430664 -21.82864746 44.00455078 -21.89331055 43.40722656 C-22.60669757 36.58399233 -23.1355598 29.76377689 -23.515625 22.9140625 C-23.59232422 21.86476563 -23.66902344 20.81546875 -23.74804688 19.734375 C-24.19820647 11.16507186 -24.19820647 11.16507186 -21.84375 7.5078125 C-19.79975058 5.26985693 -18.48510649 4.24095856 -15.703125 3.1640625 C-14.713125 2.5040625 -13.723125 1.8440625 -12.703125 1.1640625 C-8.52521609 0.35147838 -4.24217133 0.25747283 0 0 Z M-22.703125 12.1640625 C-21.703125 14.1640625 -21.703125 14.1640625 -21.703125 14.1640625 Z M-20.703125 42.1640625 C-19.703125 44.1640625 -19.703125 44.1640625 -19.703125 44.1640625 Z M15.296875 45.1640625 C14.966875 45.8240625 14.636875 46.4840625 14.296875 47.1640625 C14.956875 47.1640625 15.616875 47.1640625 16.296875 47.1640625 C15.966875 46.5040625 15.636875 45.8440625 15.296875 45.1640625 Z M29.296875 59.1640625 C30.296875 61.1640625 30.296875 61.1640625 30.296875 61.1640625 Z M-69.703125 96.1640625 C-68.703125 98.1640625 -68.703125 98.1640625 -68.703125 98.1640625 Z M-90.703125 190.1640625 C-89.703125 192.1640625 -89.703125 192.1640625 -89.703125 192.1640625 Z " fill="#F2BAA8" transform="translate(101.703125,41.8359375)"/>
<path d="M0 0 C0.33 0.99 0.66 1.98 1 3 C31.69 3 62.38 3 94 3 C93.67 3.66 93.34 4.32 93 5 C93.76183594 5.14695312 94.52367187 5.29390625 95.30859375 5.4453125 C101.80185735 6.85583418 106.71877898 8.62022754 112.0625 12.59765625 C113.96173423 14.06968687 113.96173423 14.06968687 116.1875 14.99609375 C118 16 118 16 119 19 C119.474375 19.474375 119.94875 19.94875 120.4375 20.4375 C122.91701613 22.91701613 123.92913554 25.0645891 124.1953125 28.578125 C124.17210937 29.45984375 124.14890625 30.3415625 124.125 31.25 C124.10695313 32.14203125 124.08890625 33.0340625 124.0703125 33.953125 C124.04710937 34.62859375 124.02390625 35.3040625 124 36 C124.66 36 125.32 36 126 36 C126 39.96 126 43.92 126 48 C126.66 48.33 127.32 48.66 128 49 C129.175625 49.9590625 129.175625 49.9590625 130.375 50.9375 C132.56273524 52.65643483 134.4773216 53.8788096 137 55 C137.33 53.02 137.66 51.04 138 49 C138.33 49 138.66 49 139 49 C138.96193819 58.30153835 138.90256989 67.6026268 138.81609726 76.90384197 C138.7766104 81.22293796 138.74442799 85.54182971 138.72900391 89.86108398 C138.71384506 94.03049624 138.67941389 98.19934705 138.63169098 102.36850929 C138.61686909 103.95803761 138.60895852 105.54764608 138.60811615 107.13724327 C138.60574702 109.366435 138.57867555 111.59407439 138.54589844 113.82299805 C138.53701599 115.09096725 138.52813354 116.35893646 138.51898193 117.66532898 C137.90912362 121.58391787 136.80736229 123.2440608 134 126 C130.1204856 127.29317147 126.43010196 127.17216781 122.38525391 127.19287109 C121.50527237 127.20104858 120.62529083 127.20922607 119.71864319 127.21765137 C116.80462321 127.24247825 113.89065178 127.25901254 110.9765625 127.2734375 C109.4841057 127.28142302 109.4841057 127.28142302 107.96149826 127.28956985 C102.69732178 127.31628689 97.43316893 127.33566832 92.16894531 127.35009766 C86.72901949 127.36676179 81.28969756 127.4115586 75.85000038 127.4624691 C71.66870414 127.49609815 67.48755222 127.50767018 63.30613327 127.51332474 C61.30063627 127.52004686 59.29514907 127.53529378 57.28978348 127.55921555 C54.48386336 127.59078319 51.67958572 127.59091684 48.87353516 127.58349609 C48.04530746 127.59990143 47.21707977 127.61630676 46.36375427 127.63320923 C42.03727231 127.58636134 40.46745377 127.3690341 36.94540405 124.58853149 C35 122 35 122 35 120 C34.01 119.67 33.02 119.34 32 119 C32 118.01 32 117.02 32 116 C32.96035156 115.90203125 33.92070312 115.8040625 34.91015625 115.703125 C43.65492182 114.7663409 52.32915801 113.53558213 61 112.0625 C61.95398682 111.90491211 62.90797363 111.74732422 63.89086914 111.58496094 C75.97593131 109.47917446 87.44785789 106.05368098 95.4921875 96.26953125 C98.0263253 92.45519431 99.57105268 88.33121921 101 84 C100.32453125 84.020625 99.6490625 84.04125 98.953125 84.0625 C96.11279766 83.99682769 93.72761664 83.81357482 91 83 C88.89217159 80.58331241 87.93988412 78.03836754 87 75 C86.67 74.01 86.34 73.02 86 72 C85.92828731 69.96730374 85.91605031 67.93228526 85.9375 65.8984375 C85.94523437 64.68542969 85.95296875 63.47242188 85.9609375 62.22265625 C85.98674125 59.68098716 86.01277849 57.13932042 86.0390625 54.59765625 C86.07273304 49.28332275 86.10521033 44.07184259 85.44140625 38.79296875 C85.00228601 35.0196435 85.19914274 33.28391617 87 30 C86.42894531 30.32613281 85.85789062 30.65226562 85.26953125 30.98828125 C82.83767518 32.07236167 81.32717291 32.23907443 78.6875 32.1875 C77.96949219 32.18105469 77.25148438 32.17460937 76.51171875 32.16796875 C74 32 74 32 70.9609375 31.49609375 C65.60807171 30.82566579 60.32632489 30.85532079 54.9375 30.875 C53.87466797 30.87113281 52.81183594 30.86726563 51.71679688 30.86328125 C46.67985461 30.8695735 41.95942811 31.04226613 37 32 C35.1063397 32.11018592 33.20931715 32.17427254 31.3125 32.1875 C30.38050781 32.20167969 29.44851562 32.21585938 28.48828125 32.23046875 C26 32 26 32 23 30 C22.01 30 21.02 30 20 30 C21.22007944 32.6905528 21.22007944 32.6905528 23 35 C22.60264024 38.81465374 21.90333118 42.42043156 20.97265625 46.13671875 C19.87044026 51.06670357 19.70274783 55.77620648 19.75 60.8125 C19.74226563 61.62525391 19.73453125 62.43800781 19.7265625 63.27539062 C19.74822963 70.19262293 20.82724291 75.96345747 22 83 C13.09 83 4.18 83 -5 83 C-4.67 81.02 -4.34 79.04 -4 77 C-1.65960044 75.46799201 0.27222636 74.426852 2.8125 73.375 C9.08598215 70.65801028 9.08598215 70.65801028 14 66 C15.13738764 62.97238243 15.44589378 60.20700525 15 57 C12.70795651 53.77444211 9.72687346 52.24229115 6 51 C3.42734182 50.92970879 0.88358569 50.90629168 -1.6875 50.9375 C-2.38939453 50.94201172 -3.09128906 50.94652344 -3.81445312 50.95117188 C-5.54300538 50.96293073 -7.27151365 50.98086546 -9 51 C-9.27524085 42.45033113 -9.27524085 42.45033113 -6.29296875 39.05859375 C-4.87766475 37.92687571 -3.45159083 36.80850877 -2.015625 35.703125 C1.18958728 32.99484486 2.92999152 30.04644052 4 26 C4.30155636 20.36089599 2.52872904 15.44632571 0.6328125 10.21875 C-0.35979164 6.73850833 -0.19622046 3.59737503 0 0 Z M121 24 C122 26 122 26 122 26 Z M122 27 C123 29 123 29 123 29 Z M137 58 C138 60 138 60 138 60 Z " fill="#3A5A7D" transform="translate(136,112)"/>
<path d="M0 0 C2.87279543 1.5082176 4.01780333 2.42611702 5.5 5.3125 C5.78005276 9.23323865 5.55761358 12.55209617 4.5 16.3125 C4.4175 17.488125 4.335 18.66375 4.25 19.875 C3.5 23.3125 3.5 23.3125 1.0625 25.125 C0.216875 25.516875 -0.62875 25.90875 -1.5 26.3125 C-2.16 26.9725 -2.82 27.6325 -3.5 28.3125 C0.46 28.6425 4.42 28.9725 8.5 29.3125 C8.5 55.0525 8.5 80.7925 8.5 107.3125 C-11.63 107.3125 -31.76 107.3125 -52.5 107.3125 C-52.5 81.5725 -52.5 55.8325 -52.5 29.3125 C-42.93 28.9825 -33.36 28.6525 -23.5 28.3125 C-27.83649122 24.5569506 -27.83649122 24.5569506 -30.5 23.3125 C-30.60829314 20.41565842 -30.68743954 17.52288981 -30.75 14.625 C-30.78351563 13.80837891 -30.81703125 12.99175781 -30.8515625 12.15039062 C-30.91320282 8.34410079 -30.6996228 5.76409626 -29.14453125 2.24609375 C-24.98178494 -0.79756862 -20.94253424 -0.18082374 -15.9375 0.0625 C-14.04048777 0.1237351 -12.14334883 0.18119336 -10.24609375 0.234375 C-9.40747803 0.27143555 -8.5688623 0.30849609 -7.70483398 0.34667969 C-4.67847878 0.29976465 -3.01454399 -0.8289996 0 0 Z M2.5 17.3125 C3.5 21.3125 3.5 21.3125 3.5 21.3125 Z " fill="#E9EDF3" transform="translate(328.5,131.6875)"/>
<path d="M0 0 C5.07408081 -0.16711045 8.08248831 0.06524876 12.296875 3.1640625 C13.01875 3.3084375 13.740625 3.4528125 14.484375 3.6015625 C16.296875 4.1640625 16.296875 4.1640625 17.296875 5.9140625 C17.791875 7.0278125 17.791875 7.0278125 18.296875 8.1640625 C18.9671875 8.89109375 19.6375 9.618125 20.328125 10.3671875 C23.91832775 15.4675549 23.08186628 22.15717268 22.296875 28.1640625 C21.39738657 31.62765281 20.30318746 34.96232812 19.1484375 38.34765625 C17.94545836 42.32631661 17.731951 44.29293472 19.296875 48.1640625 C22.31066257 50.25631417 22.31066257 50.25631417 24.51953125 51.28515625 C28.44854654 53.2280759 30.35112991 55.90520475 31.984375 59.8515625 C32.95522047 62.72651779 33.48320811 65.3423231 33.71484375 68.36328125 C34.28592525 74.00858128 35.93703114 79.20356763 37.65625 84.58984375 C39.35570502 90.2644608 39.75695293 94.80181134 37.31640625 100.421875 C34.44253915 104.8675335 31.55059974 107.99849991 27.296875 111.1640625 C28.02594749 100.55413914 28.02594749 100.55413914 29.359375 96.2890625 C30.23745479 93.36212987 30.56399469 91.19141901 30.296875 88.1640625 C29.32787781 86.97177213 29.32787781 86.97177213 27.56486511 87.07504272 C26.43290459 87.10049667 26.43290459 87.10049667 25.27807617 87.12646484 C24.42175095 87.14333344 23.56542572 87.16020203 22.68315125 87.17758179 C21.74485977 87.2014798 20.8065683 87.22537781 19.83984375 87.25 C18.8676741 87.27123932 17.89550446 87.29247864 16.89387512 87.31436157 C14.81811048 87.36079722 12.74240066 87.40973818 10.66674805 87.4609375 C7.56374129 87.53711411 4.46064623 87.60522991 1.35742188 87.671875 C-11.34288238 87.95818442 -24.01946717 88.45594944 -36.703125 89.1640625 C-36.81776846 97.88238134 -36.42297596 106.47443306 -35.703125 115.1640625 C-41.84668048 109.7031243 -45.36148953 103.19708512 -45.921875 94.94140625 C-45.66673974 90.535767 -44.60933513 86.88058324 -43.203125 82.7265625 C-42.96464844 81.99501953 -42.72617187 81.26347656 -42.48046875 80.50976562 C-41.89716328 78.7248509 -41.30142565 76.94400693 -40.703125 75.1640625 C-42.683125 75.1640625 -44.663125 75.1640625 -46.703125 75.1640625 C-45.775 74.761875 -45.775 74.761875 -44.828125 74.3515625 C-42.4036017 73.20849402 -42.4036017 73.20849402 -40.703125 70.1640625 C-40.043125 69.1740625 -39.383125 68.1840625 -38.703125 67.1640625 C-38.3952864 65.08373281 -38.3952864 65.08373281 -38.328125 62.8515625 C-37.91111744 58.35958632 -36.6822889 55.65394021 -33.703125 52.1640625 C-31.765625 50.9765625 -31.765625 50.9765625 -29.703125 50.1640625 C-28.02978461 49.17527045 -26.36160677 48.17757914 -24.703125 47.1640625 C-25.033125 46.5040625 -25.363125 45.8440625 -25.703125 45.1640625 C-24.383125 45.1640625 -23.063125 45.1640625 -21.703125 45.1640625 C-21.76588623 44.58430664 -21.82864746 44.00455078 -21.89331055 43.40722656 C-22.60669757 36.58399233 -23.1355598 29.76377689 -23.515625 22.9140625 C-23.59232422 21.86476563 -23.66902344 20.81546875 -23.74804688 19.734375 C-24.19820647 11.16507186 -24.19820647 11.16507186 -21.84375 7.5078125 C-19.79975058 5.26985693 -18.48510649 4.24095856 -15.703125 3.1640625 C-14.713125 2.5040625 -13.723125 1.8440625 -12.703125 1.1640625 C-8.52521609 0.35147838 -4.24217133 0.25747283 0 0 Z M-22.703125 12.1640625 C-21.703125 14.1640625 -21.703125 14.1640625 -21.703125 14.1640625 Z M-20.703125 42.1640625 C-19.703125 44.1640625 -19.703125 44.1640625 -19.703125 44.1640625 Z M15.296875 45.1640625 C14.966875 45.8240625 14.636875 46.4840625 14.296875 47.1640625 C14.956875 47.1640625 15.616875 47.1640625 16.296875 47.1640625 C15.966875 46.5040625 15.636875 45.8440625 15.296875 45.1640625 Z M29.296875 59.1640625 C30.296875 61.1640625 30.296875 61.1640625 30.296875 61.1640625 Z " fill="#F7D38A" transform="translate(101.703125,41.8359375)"/>
<path d="M0 0 C-0.20496094 0.74765625 -0.40992188 1.4953125 -0.62109375 2.265625 C-0.89050781 3.25046875 -1.15992188 4.2353125 -1.4375 5.25 C-1.70433594 6.22453125 -1.97117188 7.1990625 -2.24609375 8.203125 C-4.67532034 17.21517803 -4.25216496 23.56381374 0 32 C1.26280359 33.83179939 2.60050426 35.57549631 3.96484375 37.33203125 C5.64478268 40.03895171 5.75061402 42.88267523 6 46 C7.61243185 47.61243185 9.38053346 47.16538039 11.61157227 47.20532227 C12.59251358 47.22526749 13.5734549 47.24521271 14.5841217 47.26576233 C16.18410255 47.29083107 16.18410255 47.29083107 17.81640625 47.31640625 C19.44569313 47.3475779 19.44569313 47.3475779 21.1078949 47.37937927 C24.59269627 47.44499442 28.07757568 47.50381511 31.5625 47.5625 C33.91862801 47.60567385 36.27474799 47.64928776 38.63085938 47.69335938 C44.42048937 47.80068792 50.21019775 47.90243165 56 48 C51.03504887 51.76200694 45.77422853 55.0032432 40.5 58.3125 C39.47390625 58.96412109 38.4478125 59.61574219 37.390625 60.28710938 C18.72503754 72 18.72503754 72 13 72 C12.52691406 70.93523437 12.05382812 69.87046875 11.56640625 68.7734375 C2.62624687 48.244271 2.62624687 48.244271 -13.5625 33.625 C-17.38906217 32.64383021 -20.58804427 32.46574648 -24.3125 33.875 C-26.1589195 34.90438989 -26.1589195 34.90438989 -27 37 C-28.39145673 52.30602406 -18.03942843 64.12890024 -8.9375 75.3125 C-7.63003865 76.87921865 -6.3195098 78.44341515 -5 80 C-5.3609375 80.44730469 -5.721875 80.89460938 -6.09375 81.35546875 C-8.24174694 84.15383143 -9.84772282 86.25553379 -10.5625 89.75 C-10.14440873 92.08640851 -10.14440873 92.08640851 -8.5 93.875 C-4.90446126 95.49299243 -1.71291427 94.91958584 2 94 C3.67711742 93.3600786 5.3465355 92.69876847 7 92 C15.4202315 98.88928032 15.4202315 98.88928032 16.75 103.73046875 C16.9375 106.5 16.9375 106.5 16.90234375 109.03125 C16.99224243 111.76416973 17.39503626 114.03293557 18.00610352 116.68554688 C18.28321922 117.89833313 18.28321922 117.89833313 18.56593323 119.13562012 C18.78079628 120.05848816 18.78079628 120.05848816 19 121 C11.01986193 121.06963738 3.0398517 121.12288062 -4.94051552 121.15543652 C-8.64648834 121.171065 -12.35225264 121.19225119 -16.05810547 121.22631836 C-19.63724175 121.25901319 -23.21617798 121.27687419 -26.79545212 121.28463173 C-28.15815757 121.29015716 -29.52085259 121.30094704 -30.88347244 121.31719017 C-32.79801931 121.33909636 -34.71276925 121.34022653 -36.62744141 121.34057617 C-37.71554108 121.34723801 -38.80364075 121.35389984 -39.92471313 121.36076355 C-43.49336781 120.94212276 -45.88943857 119.75817444 -49 118 C-49.66 117.67 -50.32 117.34 -51 117 C-50.96195329 108.46345362 -50.90260766 99.92743406 -50.81609726 91.39125443 C-50.77659491 87.42748615 -50.74442025 83.46394094 -50.72900391 79.5 C-50.71385503 75.67421181 -50.67944225 71.84903674 -50.63169098 68.02352142 C-50.61685867 66.56435222 -50.60895792 65.10509548 -50.60811615 63.64585114 C-50.60575005 61.60080171 -50.57870518 59.5574517 -50.54589844 57.51269531 C-50.53701599 56.34909485 -50.52813354 55.18549438 -50.51898193 53.9866333 C-49.88844545 50.35802673 -48.86112649 49.24553786 -46 47 C-44.03120677 45.93988057 -42.03564133 44.92529151 -40 44 C-40 43.34 -40 42.68 -40 42 C-37.36 42 -34.72 42 -32 42 C-32 36.72 -32 31.44 -32 26 C-31.34 26 -30.68 26 -30 26 C-30.103125 25.01 -30.20625 24.02 -30.3125 23 C-30.32223565 18.21979504 -28.09315839 14.54085237 -25 11 C-23.68909032 10.29025496 -22.35365569 9.62437049 -21 9 C-19.71052202 8.04552042 -18.44000044 7.06501053 -17.1875 6.0625 C-11.73479959 1.92492214 -7.06966955 -0.51729289 0 0 Z M-29 20 C-28 22 -28 22 -28 22 Z M-50 114 C-49 116 -49 116 -49 116 Z " fill="#5489AE" transform="translate(61,118)"/>
<path d="M0 0 C0.66 0 1.32 0 2 0 C2.16435547 0.90492187 2.16435547 0.90492187 2.33203125 1.828125 C3.50797128 7.93684987 3.50797128 7.93684987 7 13 C7.721875 12.401875 8.44375 11.80375 9.1875 11.1875 C15.85714286 6 15.85714286 6 19 6 C19 9.96 19 13.92 19 18 C20.27875 17.649375 21.5575 17.29875 22.875 16.9375 C26.75 15.875 26.75 15.875 29 17 C28.67 19.31 28.34 21.62 28 24 C27.34 24 26.68 24 26 24 C25.67 26.31 25.34 28.62 25 31 C24.34 31 23.68 31 23 31 C20.8787733 37.66671249 19 44.97527711 19 52 C20.65 52.33 22.3 52.66 24 53 C24 53.33 24 53.66 24 54 C22.0509375 53.9690625 22.0509375 53.9690625 20.0625 53.9375 C18.70834367 53.91600546 17.35243917 53.92851801 16 54 C15.67 54.33 15.34 54.66 15 55 C18.3 55 21.6 55 25 55 C25 56.98 25 58.96 25 61 C-11.63 61 -48.26 61 -86 61 C-86 58.36 -86 55.72 -86 53 C-81.71 53 -77.42 53 -73 53 C-72.67 52.01 -72.34 51.02 -72 50 C-71.67 50 -71.34 50 -71 50 C-70.823479 49.09644775 -70.64695801 48.19289551 -70.46508789 47.26196289 C-69.81027875 43.91987388 -69.15204743 40.57849751 -68.49145508 37.23754883 C-68.20589179 35.78957882 -67.9217079 34.34133608 -67.63891602 32.89282227 C-67.23292912 30.8145391 -66.82204196 28.7372773 -66.41015625 26.66015625 C-66.16402588 25.40855713 -65.91789551 24.15695801 -65.66430664 22.86743164 C-65 20 -65 20 -64 19 C-61.00529431 18.89881461 -58.03413948 18.86031563 -55.0390625 18.8671875 C-54.13755463 18.86623077 -53.23604675 18.86527405 -52.30722046 18.86428833 C-50.39556814 18.86360633 -48.48391352 18.865462 -46.57226562 18.86962891 C-43.64447819 18.8749645 -40.71684505 18.86969101 -37.7890625 18.86328125 C-35.93489549 18.86394227 -34.08072858 18.86522393 -32.2265625 18.8671875 C-30.90925644 18.86415115 -30.90925644 18.86415115 -29.56533813 18.86105347 C-28.33924332 18.86578171 -28.33924332 18.86578171 -27.08837891 18.87060547 C-26.36969635 18.87140106 -25.65101379 18.87219666 -24.91055298 18.87301636 C-23 19 -23 19 -20 20 C-20 30.89 -20 41.78 -20 53 C-15.71 52.67 -11.42 52.34 -7 52 C-7.2165625 50.576875 -7.2165625 50.576875 -7.4375 49.125 C-8.11197278 44.43259653 -8.55376896 39.71865588 -9 35 C-8.34 34.67 -7.68 34.34 -7 34 C-7.7425 33.4225 -8.485 32.845 -9.25 32.25 C-15.67801858 26.99071207 -15.67801858 26.99071207 -16.8125 23.5 C-16.99714648 21.03804693 -16.77593983 19.3278195 -16 17 C-15.443125 17.28875 -14.88625 17.5775 -14.3125 17.875 C-11.91505355 19.0413253 -9.48403061 20.0339881 -7 21 C-5.91681831 15.6787385 -4.847126 10.36513131 -4 5 C-3.34 5 -2.68 5 -2 5 C-1.34 3.35 -0.68 1.7 0 0 Z M-4 8 C-3 10 -3 10 -3 10 Z M8 15 C7.67 16.32 7.34 17.64 7 19 C7.66 18.67 8.32 18.34 9 18 C8.67 17.01 8.34 16.02 8 15 Z M-16 22 C-15 24 -15 24 -15 24 Z M-50 30 C-49 34 -49 34 -49 34 Z M-51 35 C-51.83288874 41.25307239 -52.03863773 46.76817361 -51 53 C-50.67 53 -50.34 53 -50 53 C-50 47.06 -50 41.12 -50 35 C-50.33 35 -50.66 35 -51 35 Z M-53 46 C-53 47.65 -53 49.3 -53 51 C-52.67 51 -52.34 51 -52 51 C-52 49.35 -52 47.7 -52 46 C-52.33 46 -52.66 46 -53 46 Z M-54 51 C-53 53 -53 53 -53 53 Z M-54 54 C-54 54.33 -54 54.66 -54 55 C-52.35 55 -50.7 55 -49 55 C-49 54.67 -49 54.34 -49 54 C-50.65 54 -52.3 54 -54 54 Z M-22 54 C-22 54.33 -22 54.66 -22 55 C-15.73 55 -9.46 55 -3 55 C-3 54.67 -3 54.34 -3 54 C-9.27 54 -15.54 54 -22 54 Z " fill="#DBE1E8" transform="translate(242,28)"/>
<path d="M0 0 C4.875 0.875 4.875 0.875 6 2 C7.72677444 2.1000176 9.4578377 2.12966845 11.1875 2.125 C12.60095703 2.12886719 12.60095703 2.12886719 14.04296875 2.1328125 C16.95906787 2.0726492 16.95906787 2.0726492 19.6171875 1.5 C24.71804604 0.74606248 29.78888528 0.85626641 34.9375 0.875 C35.99646484 0.87113281 37.05542969 0.86726562 38.14648438 0.86328125 C43.54164599 0.87001258 48.66357925 1.12202846 54 2 C55.56087488 2.0825346 57.12445462 2.13061237 58.6875 2.125 C59.41324219 2.12757813 60.13898438 2.13015625 60.88671875 2.1328125 C63.03488941 1.99780732 64.93361805 1.5877294 67 1 C66.87431641 2.13888672 66.87431641 2.13888672 66.74609375 3.30078125 C66.64425781 4.29464844 66.54242188 5.28851563 66.4375 6.3125 C66.33308594 7.29863281 66.22867188 8.28476563 66.12109375 9.30078125 C65.83397473 12.09930347 65.83397473 12.09930347 67 15 C67.04866641 17.23775363 67.03697682 19.47700916 66.9921875 21.71484375 C66.97467127 23.05402888 66.95776298 24.39322208 66.94140625 25.73242188 C66.91045207 27.83706043 66.87491651 29.94129432 66.82861328 32.0456543 C66.78618976 34.08126834 66.76281324 36.11640768 66.7421875 38.15234375 C66.7201123 39.36913818 66.69803711 40.58593262 66.67529297 41.83959961 C67.03493108 45.33998714 67.88876389 46.31875098 70 49 C70 50.65 70 52.3 70 54 C47.89 54 25.78 54 3 54 C-2.55923923 42.88152154 -2.97933767 27.57606213 0.5 15.5625 C0.91765625 14.38880859 0.91765625 14.38880859 1.34375 13.19140625 C2.09935306 10.66823176 2.21105649 8.62061804 2 6 C0.60414215 4.18523997 0.60414215 4.18523997 -1 3 C-0.67 2.01 -0.34 1.02 0 0 Z " fill="#5488AE" transform="translate(156,141)"/>
<path d="M0 0 C1.08254059 -0.01821808 2.16508118 -0.03643616 3.28042603 -0.0552063 C4.25412643 -0.0747789 5.22782684 -0.0943515 6.23103333 -0.11451721 C8.59609985 0.09494019 8.59609985 0.09494019 10.59609985 2.09494019 C10.17745039 9.33684138 8.64292046 16.38155198 7.15859985 23.46994019 C6.94139282 24.5488855 6.72418579 25.62783081 6.50039673 26.73947144 C6.28576782 27.7720105 6.07113892 28.80454956 5.8500061 29.86837769 C5.65737183 30.80085327 5.46473755 31.73332886 5.26626587 32.69406128 C4.59609985 35.09494019 4.59609985 35.09494019 2.59609985 38.09494019 C0.20510864 38.46916199 0.20510864 38.46916199 -2.83163452 38.46725464 C-3.96621094 38.47348343 -5.10078735 38.47971222 -6.26974487 38.48612976 C-7.49995361 38.47692001 -8.73016235 38.46771027 -9.99765015 38.45822144 C-11.88405212 38.45896919 -11.88405212 38.45896919 -13.80856323 38.45973206 C-16.47199875 38.4573877 -19.1346446 38.44920612 -21.79794312 38.43112183 C-25.21463468 38.40843409 -28.63088415 38.40788996 -32.04763031 38.41463947 C-35.30183702 38.41878115 -38.55596493 38.40680968 -41.81015015 38.39572144 C-43.65546326 38.39708855 -43.65546326 38.39708855 -45.53805542 38.39848328 C-46.67263184 38.38895126 -47.80720825 38.37941925 -48.97616577 38.36959839 C-49.97829102 38.364991 -50.98041626 38.36038361 -52.01290894 38.3556366 C-54.40390015 38.09494019 -54.40390015 38.09494019 -56.40390015 36.09494019 C-56.81454468 34.13058472 -56.81454468 34.13058472 -57.03671265 31.72775269 C-57.12074341 30.84700073 -57.20477417 29.96624878 -57.29135132 29.05880737 C-57.36974243 28.1219812 -57.44813354 27.18515503 -57.52890015 26.21994019 C-57.61309204 25.27280151 -57.69728394 24.32566284 -57.7840271 23.349823 C-58.94922771 9.5374146 -58.94922771 9.5374146 -58.40390015 3.09494019 C-56.75559248 1.44663252 -54.79728577 1.88005551 -52.52377319 1.79782104 C-50.96030403 1.73787209 -50.96030403 1.73787209 -49.36524963 1.67671204 C-48.22687149 1.63812576 -47.08849335 1.59953949 -45.9156189 1.55978394 C-44.7469075 1.51680679 -43.57819611 1.47382965 -42.37406921 1.42955017 C-39.88824463 1.33910446 -37.40233407 1.25099713 -34.91635132 1.16500854 C-31.14571374 1.03432263 -27.37540037 0.89634314 -23.60507202 0.75704956 C-21.18777002 0.67002368 -18.77045269 0.58342227 -16.3531189 0.49728394 C-15.23700729 0.45667343 -14.12089569 0.41606293 -12.97096252 0.3742218 C-8.64782653 0.22644733 -4.32393916 0.12060154 0 0 Z " fill="#D5EBF1" transform="translate(122.40390014648438,127.90505981445313)"/>
<path d="M0 0 C0.33 0 0.66 0 1 0 C0.96193819 9.30153835 0.90256989 18.6026268 0.81609726 27.90384197 C0.7766104 32.22293796 0.74442799 36.54182971 0.72900391 40.86108398 C0.71384506 45.03049624 0.67941389 49.19934705 0.63169098 53.36850929 C0.61686909 54.95803761 0.60895852 56.54764608 0.60811615 58.13724327 C0.60574702 60.366435 0.57867555 62.59407439 0.54589844 64.82299805 C0.53701599 66.09096725 0.52813354 67.35893646 0.51898193 68.66532898 C-0.09087638 72.58391787 -1.19263771 74.2440608 -4 77 C-7.65373328 78.21791109 -11.06745986 78.26104675 -14.875 78.3125 C-15.93654297 78.35600586 -15.93654297 78.35600586 -17.01953125 78.40039062 C-20.73926712 78.44541536 -22.78913102 78.13563853 -25.9453125 76.10546875 C-29.17957359 72.79127345 -29.13774618 70.81988315 -29.19287109 66.28442383 C-29.20893402 65.08590286 -29.22499695 63.8873819 -29.24154663 62.65254211 C-29.28595072 57.15890664 -29.32751604 51.66540323 -29.35009766 46.17163086 C-29.36341258 43.27417253 -29.39121728 40.37742257 -29.43212891 37.48022461 C-29.48160253 33.97650312 -29.50623686 30.47342191 -29.51332474 26.96936607 C-29.52325427 24.99349122 -29.55746611 23.01778623 -29.59213257 21.04219055 C-29.57480852 13.66113485 -29.20045499 9.40845397 -24 4 C-20.06437731 1.28879326 -16.65173456 0.47123571 -11.95703125 0.6328125 C-8.75094551 1.23435354 -6.54469278 3.04709624 -4 5 C-3.01 5.33 -2.02 5.66 -1 6 C-0.67 4.02 -0.34 2.04 0 0 Z M-1 9 C0 11 0 11 0 11 Z " fill="#558AB0" transform="translate(274,161)"/>
<path d="M0 0 C2.64 0 5.28 0 8 0 C8.00410889 1.11971191 8.00821777 2.23942383 8.01245117 3.39306641 C8.03429358 7.56442719 8.08863545 11.73485154 8.15258789 15.90576172 C8.17572354 17.70775346 8.19015319 19.50987957 8.19555664 21.31201172 C8.20487904 23.90937603 8.24593792 26.50464001 8.29296875 29.1015625 C8.2890361 29.9017984 8.28510345 30.7020343 8.28105164 31.52651978 C8.30069473 32.28685516 8.32033783 33.04719055 8.34057617 33.83056641 C8.35056892 34.82317978 8.35056892 34.82317978 8.36076355 35.83584595 C9.37155906 39.25792427 11.63093891 41.36055494 14 44 C4.30766896 44.11590114 -5.38442318 44.20471862 -15.07729626 44.25906086 C-19.57822857 44.28514391 -24.07868644 44.32051776 -28.5793457 44.37719727 C-32.92359892 44.43156406 -37.26739609 44.46143027 -41.61196327 44.47438622 C-43.26860038 44.48361781 -44.92521279 44.50164546 -46.5816555 44.52865028 C-48.90418601 44.56500498 -51.2248377 44.56994301 -53.54760742 44.56762695 C-54.23093643 44.58560333 -54.91426544 44.60357971 -55.61830139 44.62210083 C-59.46223372 44.58068503 -60.93848319 44.04999869 -63.96577454 41.58952332 C-66 39 -66 39 -66 37 C-66.99 36.67 -67.98 36.34 -69 36 C-69 35.01 -69 34.02 -69 33 C-68.03964844 32.90203125 -67.07929688 32.8040625 -66.08984375 32.703125 C-57.34507818 31.7663409 -48.67084199 30.53558213 -40 29.0625 C-39.04601318 28.90491211 -38.09202637 28.74732422 -37.10913086 28.58496094 C-25.02794149 26.47984928 -13.54217565 23.0563373 -5.5078125 13.265625 C-3.13380142 9.69845809 0 4.42826874 0 0 Z " fill="#3B6993" transform="translate(237,195)"/>
<path d="M0 0 C1.20269531 -0.00773438 2.40539062 -0.01546875 3.64453125 -0.0234375 C8.42449234 0.5141105 11.67561777 2.36707851 15.625 5 C17.73555551 8.20804437 17.66145593 10.32584797 17.046875 14.0625 C14.93527677 19.74461888 9.41507609 22.96881802 4.1875 25.5625 C-2.56785487 28.27155869 -9.73014977 29.78005534 -16.8125 31.375 C-17.58513184 31.55063477 -18.35776367 31.72626953 -19.15380859 31.90722656 C-44.42947782 37.59980524 -44.42947782 37.59980524 -56.8125 37.375 C-57.8025 34.405 -58.7925 31.435 -59.8125 28.375 C-58.66136719 27.79234375 -57.51023437 27.2096875 -56.32421875 26.609375 C-45.04954328 20.8281027 -34.30614647 14.48858532 -23.70922852 7.54492188 C-20.34365412 5.46900059 -17.71395432 4.18954334 -13.75 3.9375 C-9.91741672 3.82698378 -9.91741672 3.82698378 -8.4921875 1.86328125 C-5.86054196 -0.4684791 -3.4369855 -0.02196157 0 0 Z " fill="#E7A290" transform="translate(134.8125,161.625)"/>
<path d="M0 0 C5.07408081 -0.16711045 8.08248831 0.06524876 12.296875 3.1640625 C13.01875 3.3084375 13.740625 3.4528125 14.484375 3.6015625 C16.296875 4.1640625 16.296875 4.1640625 17.296875 5.9140625 C17.791875 7.0278125 17.791875 7.0278125 18.296875 8.1640625 C18.9671875 8.89109375 19.6375 9.618125 20.328125 10.3671875 C23.96137435 15.52870841 23.08883073 22.09040579 22.296875 28.1640625 C21.40492426 31.63193738 20.35213675 34.91847873 19.07421875 38.26171875 C18.18028526 41.5993699 18.5094903 43.83129581 19.296875 47.1640625 C18.430625 46.885625 18.430625 46.885625 17.546875 46.6015625 C15.35753696 46.00265919 15.35753696 46.00265919 13.484375 46.6640625 C10.29588538 47.39286013 7.48606474 46.71603765 4.296875 46.1640625 C3.62109375 44.41015625 3.62109375 44.41015625 3.296875 42.1640625 C4.44140625 40.19921875 4.44140625 40.19921875 6.109375 38.2265625 C8.46307147 35.30492071 10.16320209 32.79181582 11.296875 29.1640625 C10.73742187 29.24527344 10.17796875 29.32648438 9.6015625 29.41015625 C0.87011403 30.09800348 -5.33458526 26.32611953 -12.703125 22.1640625 C-12.78430451 24.58140792 -12.84369426 26.99601199 -12.890625 29.4140625 C-12.91576172 30.09597656 -12.94089844 30.77789062 -12.96679688 31.48046875 C-13.02972923 35.80182345 -12.53298695 37.92886224 -9.703125 41.1640625 C-10.11338141 45.57431891 -10.11338141 45.57431891 -11.703125 47.1640625 C-17.23253676 47.39935662 -17.23253676 47.39935662 -19.703125 46.1640625 C-21.70272512 46.1240705 -23.70359742 46.12059451 -25.703125 46.1640625 C-23.723125 45.6690625 -23.723125 45.6690625 -21.703125 45.1640625 C-21.76588623 44.58430664 -21.82864746 44.00455078 -21.89331055 43.40722656 C-22.60669757 36.58399233 -23.1355598 29.76377689 -23.515625 22.9140625 C-23.59232422 21.86476563 -23.66902344 20.81546875 -23.74804688 19.734375 C-24.19820647 11.16507186 -24.19820647 11.16507186 -21.84375 7.5078125 C-19.79975058 5.26985693 -18.48510649 4.24095856 -15.703125 3.1640625 C-14.713125 2.5040625 -13.723125 1.8440625 -12.703125 1.1640625 C-8.52521609 0.35147838 -4.24217133 0.25747283 0 0 Z M-22.703125 12.1640625 C-21.703125 14.1640625 -21.703125 14.1640625 -21.703125 14.1640625 Z M-20.703125 42.1640625 C-19.703125 44.1640625 -19.703125 44.1640625 -19.703125 44.1640625 Z " fill="#C34104" transform="translate(101.703125,41.8359375)"/>
<path d="M0 0 C1.25554687 -0.01417969 2.51109375 -0.02835938 3.8046875 -0.04296875 C7.125 0.1875 7.125 0.1875 10.125 2.1875 C10.39186213 4.88290315 10.47318073 7.34597464 10.41796875 10.0390625 C10.41372391 10.81309418 10.40947906 11.58712585 10.40510559 12.38461304 C10.38828998 14.86092677 10.35063395 17.33643158 10.3125 19.8125 C10.29745682 21.48957159 10.28376778 23.16665592 10.27148438 24.84375 C10.23837721 28.95864581 10.18657637 33.07293569 10.125 37.1875 C13.425 37.1875 16.725 37.1875 20.125 37.1875 C19.63 19.8625 19.63 19.8625 19.125 2.1875 C20.445 2.1875 21.765 2.1875 23.125 2.1875 C23.125 13.7375 23.125 25.2875 23.125 37.1875 C26.425 37.1875 29.725 37.1875 33.125 37.1875 C33.125 25.6375 33.125 14.0875 33.125 2.1875 C33.455 2.1875 33.785 2.1875 34.125 2.1875 C34.125 13.7375 34.125 25.2875 34.125 37.1875 C38.4871875 36.94 38.4871875 36.94 42.9375 36.6875 C55.99607802 36.00975216 69.05304567 36.09080294 82.125 36.1875 C82.125 38.1675 82.125 40.1475 82.125 42.1875 C45.495 42.1875 8.865 42.1875 -28.875 42.1875 C-28.875 39.5475 -28.875 36.9075 -28.875 34.1875 C-24.585 34.1875 -20.295 34.1875 -15.875 34.1875 C-15.545 33.1975 -15.215 32.2075 -14.875 31.1875 C-14.545 31.1875 -14.215 31.1875 -13.875 31.1875 C-13.698479 30.28394775 -13.52195801 29.38039551 -13.34008789 28.44946289 C-12.68527875 25.10737388 -12.02704743 21.76599751 -11.36645508 18.42504883 C-11.08089179 16.97707882 -10.7967079 15.52883608 -10.51391602 14.08032227 C-10.10792912 12.0020391 -9.69704196 9.9247773 -9.28515625 7.84765625 C-9.03902588 6.59605713 -8.79289551 5.34445801 -8.53930664 4.05493164 C-7.33596227 -1.13921743 -4.96728712 0.02539513 0 0 Z M7.125 11.1875 C8.125 15.1875 8.125 15.1875 8.125 15.1875 Z M6.125 16.1875 C5.29211126 22.44057239 5.08636227 27.95567361 6.125 34.1875 C6.455 34.1875 6.785 34.1875 7.125 34.1875 C7.125 28.2475 7.125 22.3075 7.125 16.1875 C6.795 16.1875 6.465 16.1875 6.125 16.1875 Z M4.125 27.1875 C4.125 28.8375 4.125 30.4875 4.125 32.1875 C4.455 32.1875 4.785 32.1875 5.125 32.1875 C5.125 30.5375 5.125 28.8875 5.125 27.1875 C4.795 27.1875 4.465 27.1875 4.125 27.1875 Z M3.125 32.1875 C4.125 34.1875 4.125 34.1875 4.125 34.1875 Z M3.125 35.1875 C3.125 35.5175 3.125 35.8475 3.125 36.1875 C4.775 36.1875 6.425 36.1875 8.125 36.1875 C8.125 35.8575 8.125 35.5275 8.125 35.1875 C6.475 35.1875 4.825 35.1875 3.125 35.1875 Z " fill="#B7C0CB" transform="translate(184.875,46.8125)"/>
<path d="M0 0 C3.24321267 3.21176415 6.27943148 6.42909048 9.125 10 C9.78757812 10.825 10.45015625 11.65 11.1328125 12.5 C12.93946053 14.91894297 14.49603843 17.38441467 16 20 C15.175 20.886875 14.35 21.77375 13.5 22.6875 C11.69971448 24.86220387 11.02903616 25.8612717 10.4375 28.6875 C10.84679846 31.07912137 10.84679846 31.07912137 12.5 32.875 C16.09553874 34.49299243 19.28708573 33.91958584 23 33 C24.67711742 32.3600786 26.3465355 31.69876847 28 31 C36.4202315 37.88928032 36.4202315 37.88928032 37.75 42.73046875 C37.9375 45.5 37.9375 45.5 37.90234375 48.03125 C37.94312498 52.0524896 37.94312498 52.0524896 40 60 C25.15 60 10.3 60 -5 60 C-3.02 57.525 -3.02 57.525 -1 55 C-0.39276896 52.28813592 -0.39276896 52.28813592 -0.45410156 49.38354492 C-0.43438293 48.28278122 -0.41466431 47.18201752 -0.39434814 46.04789734 C-0.39311951 44.8706459 -0.39189087 43.69339447 -0.390625 42.48046875 C-0.37408875 41.26676102 -0.35755249 40.05305328 -0.34051514 38.80256653 C-0.29197917 34.93082649 -0.27065056 31.05947942 -0.25 27.1875 C-0.22184519 24.56052705 -0.19191847 21.93357244 -0.16015625 19.30664062 C-0.08621834 12.87116522 -0.03460853 6.43580059 0 0 Z " fill="#45739E" transform="translate(40,179)"/>
<path d="M0 0 C3.3 0 6.6 0 10 0 C10 25.74 10 51.48 10 78 C6.7 78 3.4 78 0 78 C0 71.73 0 65.46 0 59 C-15.51 59 -31.02 59 -47 59 C-47 58.34 -47 57.68 -47 57 C-31.49 57 -15.98 57 0 57 C0 50.73 0 44.46 0 38 C-15.51 38 -31.02 38 -47 38 C-47 37.34 -47 36.68 -47 36 C-31.49 36 -15.98 36 0 36 C0 29.73 0 23.46 0 17 C-15.51 17 -31.02 17 -47 17 C-47 16.34 -47 15.68 -47 15 C-31.49 15 -15.98 15 0 15 C0 10.05 0 5.1 0 0 Z " fill="#B5BEC8" transform="translate(327,161)"/>
<path d="M0 0 C2.87279543 1.5082176 4.01780333 2.42611702 5.5 5.3125 C5.78005276 9.23323865 5.55761358 12.55209617 4.5 16.3125 C4.4175 17.488125 4.335 18.66375 4.25 19.875 C3.5 23.3125 3.5 23.3125 1.1875 25.0625 C0.300625 25.475 -0.58625 25.8875 -1.5 26.3125 C-2.20125 26.84875 -2.9025 27.385 -3.625 27.9375 C-7.34004477 30.66186616 -10.73637037 30.41907059 -15.1875 30.375 C-16.95673828 30.36146484 -16.95673828 30.36146484 -18.76171875 30.34765625 C-19.66535156 30.33605469 -20.56898438 30.32445312 -21.5 30.3125 C-21.5 29.6525 -21.5 28.9925 -21.5 28.3125 C-22.056875 28.044375 -22.61375 27.77625 -23.1875 27.5 C-23.950625 27.108125 -24.71375 26.71625 -25.5 26.3125 C-26.36109375 25.97605469 -27.2221875 25.63960937 -28.109375 25.29296875 C-30.5 23.3125 -30.5 23.3125 -30.96801758 21.46264648 C-31.14024717 19.10239537 -31.1320684 16.80282567 -31.0625 14.4375 C-31.07345703 13.63441406 -31.08441406 12.83132812 -31.09570312 12.00390625 C-31.0496627 8.27770084 -30.66717984 5.6839052 -29.125 2.2578125 C-24.98315206 -0.81159267 -20.93776635 -0.18059195 -15.9375 0.0625 C-14.04048777 0.1237351 -12.14334883 0.18119336 -10.24609375 0.234375 C-9.40747803 0.27143555 -8.5688623 0.30849609 -7.70483398 0.34667969 C-4.67847878 0.29976465 -3.01454399 -0.8289996 0 0 Z M2.5 17.3125 C3.5 21.3125 3.5 21.3125 3.5 21.3125 Z " fill="#E7ECF3" transform="translate(328.5,131.6875)"/>
<path d="M0 0 C0.66 0 1.32 0 2 0 C2.10957031 0.60328125 2.21914062 1.2065625 2.33203125 1.828125 C3.50797128 7.93684987 3.50797128 7.93684987 7 13 C8.0828125 12.1028125 8.0828125 12.1028125 9.1875 11.1875 C15.85714286 6 15.85714286 6 19 6 C19 9.96 19 13.92 19 18 C20.918125 17.4740625 20.918125 17.4740625 22.875 16.9375 C26.75 15.875 26.75 15.875 29 17 C28.67 19.31 28.34 21.62 28 24 C27.34 24 26.68 24 26 24 C25.67 26.31 25.34 28.62 25 31 C24.34 31 23.68 31 23 31 C22.34 33.31 21.68 35.62 21 38 C20.01 38 19.02 38 18 38 C18 37.34 18 36.68 18 36 C17.33991943 36.0314209 16.67983887 36.0628418 15.99975586 36.09521484 C12.97935924 36.22072269 9.95951202 36.29821567 6.9375 36.375 C5.89916016 36.42527344 4.86082031 36.47554687 3.79101562 36.52734375 C-1.45497454 36.62726737 -5.00298386 36.61358679 -9.09765625 33.10546875 C-10.08489098 32.08916588 -11.05495117 31.05564513 -12 30 C-12.78375 29.319375 -13.5675 28.63875 -14.375 27.9375 C-16.35133427 25.58110145 -16.77124262 24.05009838 -17 21 C-16.5625 18.6875 -16.5625 18.6875 -16 17 C-15.1646875 17.433125 -15.1646875 17.433125 -14.3125 17.875 C-11.91505355 19.0413253 -9.48403061 20.0339881 -7 21 C-5.91681831 15.6787385 -4.847126 10.36513131 -4 5 C-3.34 5 -2.68 5 -2 5 C-1.34 3.35 -0.68 1.7 0 0 Z M-4 8 C-3 10 -3 10 -3 10 Z M8 15 C7.67 16.32 7.34 17.64 7 19 C7.66 18.67 8.32 18.34 9 18 C8.67 17.01 8.34 16.02 8 15 Z M-16 22 C-15 24 -15 24 -15 24 Z " fill="#65BDCE" transform="translate(242,28)"/>
<path d="M0 0 C2.5419589 -0.05434116 5.08273682 -0.0938339 7.625 -0.125 C8.33785156 -0.14175781 9.05070312 -0.15851563 9.78515625 -0.17578125 C14.84772929 -0.22222687 19.68640316 -0.08278671 23.64453125 3.48046875 C26.49878677 7.65207298 27.58809446 10.85118076 28 16 C29.61243185 17.61243185 31.38053346 17.16538039 33.61157227 17.20532227 C34.59251358 17.22526749 35.5734549 17.24521271 36.5841217 17.26576233 C38.18410255 17.29083107 38.18410255 17.29083107 39.81640625 17.31640625 C40.9025975 17.33718735 41.98878876 17.35796844 43.1078949 17.37937927 C46.59269627 17.44499442 50.07757568 17.50381511 53.5625 17.5625 C55.91862801 17.60567385 58.27474799 17.64928776 60.63085938 17.69335938 C66.42048937 17.80068792 72.21019775 17.90243165 78 18 C73.03504887 21.76200694 67.77422853 25.0032432 62.5 28.3125 C61.47390625 28.96412109 60.4478125 29.61574219 59.390625 30.28710938 C40.72503754 42 40.72503754 42 35 42 C34.52691406 40.93523437 34.05382812 39.87046875 33.56640625 38.7734375 C24.61891678 18.29524615 24.61891678 18.29524615 8.5 3.625 C5.28323643 2.82080911 2.30072556 2.87055978 -1 3 C-0.67 2.01 -0.34 1.02 0 0 Z " fill="#039EB3" transform="translate(39,148)"/>
<path d="M0 0 C5.0991659 2.88505439 9.13132165 6.47823247 12.375 11.34375 C12.375 12.99375 12.375 14.64375 12.375 16.34375 C-5.775 16.34375 -23.925 16.34375 -42.625 16.34375 C-42.625 12.05375 -42.625 7.76375 -42.625 3.34375 C-40.645 4.00375 -38.665 4.66375 -36.625 5.34375 C-36.295 4.35375 -35.965 3.36375 -35.625 2.34375 C-26.13733756 -5.45282446 -10.75668104 -4.5912663 0 0 Z " fill="#B7BFC9" transform="translate(213.625,178.65625)"/>
<path d="M0 0 C0.99 0 1.98 0 3 0 C3.33 3.96 3.66 7.92 4 12 C17.86 12.33 31.72 12.66 46 13 C46 6.70324807 45.93683977 5.01710128 43 0 C43.66 0 44.32 0 45 0 C48 3.46153846 48 3.46153846 48 6 C48.99 6.33 49.98 6.66 51 7 C52.375 8.25 52.375 8.25 54 10 C54.886875 10.7425 55.77375 11.485 56.6875 12.25 C59 15 59 15 59.3125 18.8125 C59.209375 19.864375 59.10625 20.91625 59 22 C52.38667474 24.4269854 46.05134964 24.25596392 39.06640625 24.1953125 C37.83333237 24.1924826 36.60025848 24.18965271 35.32981873 24.18673706 C31.40727875 24.1755786 27.4849705 24.15048151 23.5625 24.125 C20.89648772 24.11383396 18.23047761 24.10583976 15.56445312 24.09765625 C9.04289023 24.07565341 2.52146168 24.04221878 -4 24 C-5.63356321 19.09931037 -5.05529694 14.14261524 -5 9 C-12.26 9 -19.52 9 -27 9 C-27 8.67 -27 8.34 -27 8 C-19.08 7.67 -11.16 7.34 -3 7 C-2.01 4.69 -1.02 2.38 0 0 Z " fill="#CB4519" transform="translate(126,232)"/>
<path d="M0 0 C1.56047445 0.00015913 3.12095416 0.00585397 4.68139648 0.01586914 C5.91115456 0.01799156 5.91115456 0.01799156 7.16575623 0.02015686 C9.79470406 0.0257725 12.42356797 0.0383276 15.05249023 0.05102539 C16.8304838 0.05603838 18.60847869 0.06060163 20.38647461 0.06469727 C24.75434569 0.07574701 29.12215371 0.09302208 33.48999023 0.11352539 C34.69800271 2.31265035 35.8808097 4.52014358 37.05249023 6.73852539 C37.56585938 7.6647168 37.56585938 7.6647168 38.08959961 8.60961914 C40.30933751 12.86972219 40.79377174 15.48260747 39.48999023 20.11352539 C33.52685857 20.13817113 27.56375629 20.15635939 21.60058594 20.16845703 C19.57030725 20.17349817 17.54003221 20.18033096 15.50976562 20.18896484 C12.59821677 20.20104006 9.68671573 20.20675573 6.77514648 20.21118164 C5.40484032 20.21892357 5.40484032 20.21892357 4.0068512 20.2268219 C1.83423596 20.22701707 -0.33828273 20.17564344 -2.51000977 20.11352539 C-4.71060451 17.91293064 -3.98087408 13.0874374 -4.13500977 10.11352539 C-4.18657227 9.26790039 -4.23813477 8.42227539 -4.29125977 7.55102539 C-4.33508789 6.74665039 -4.37891602 5.94227539 -4.42407227 5.11352539 C-4.46483887 4.37102539 -4.50560547 3.62852539 -4.54760742 2.86352539 C-4.47618598 -0.46081809 -3.36559793 0.10885463 0 0 Z " fill="#6ABECF" transform="translate(132.510009765625,224.886474609375)"/>
<path d="M0 0 C2.37214928 0.91825133 4.70645888 1.85380728 6.984375 2.98828125 C12.66464285 5.7579154 17.69982663 6.73694474 24 7 C23.69702201 11.84764787 21.22007542 14.49737768 18.1796875 18.03515625 C16.78913167 19.93133181 16.78913167 19.93133181 17.1328125 22.18359375 C17.41898438 22.78300781 17.70515625 23.38242188 18 24 C18.99 24.33 19.98 24.66 21 25 C20.04064246 31.44344613 18.70518548 35.40684274 14 40 C10.75163761 42.30528944 7.92675367 42.48082698 4 42 C-1.1764366 39.16528472 -3.28247104 34.45003603 -5 29 C-5 27.68 -5 26.36 -5 25 C-3.02 24.67 -1.04 24.34 1 24 C1.77802187 21.6984589 1.77802187 21.6984589 2 19 C1.525625 18.401875 1.05125 17.80375 0.5625 17.1875 C-2.78007925 12.50788905 -0.90054384 5.40326304 0 0 Z " fill="#E6B1A0" transform="translate(89,64)"/>
<path d="M0 0 C-0.20496094 0.74765625 -0.40992188 1.4953125 -0.62109375 2.265625 C-0.89050781 3.25046875 -1.15992188 4.2353125 -1.4375 5.25 C-1.70433594 6.22453125 -1.97117188 7.1990625 -2.24609375 8.203125 C-4.03064313 14.82352583 -4.805004 20.07563324 -2.484375 26.73828125 C-2.20819336 27.53919189 -1.93201172 28.34010254 -1.64746094 29.1652832 C-1.43379883 29.77073975 -1.22013672 30.37619629 -1 31 C-1.91495239 30.95286865 -1.91495239 30.95286865 -2.84838867 30.90478516 C-5.62771102 30.77961662 -8.40644066 30.70189565 -11.1875 30.625 C-12.62706055 30.54958984 -12.62706055 30.54958984 -14.09570312 30.47265625 C-19.1960188 30.26878791 -19.1960188 30.26878791 -23.76293945 32.19091797 C-26.39572045 35.14412526 -27.63467663 37.96288586 -27.8125 41.875 C-27.86019531 42.65617187 -27.90789063 43.43734375 -27.95703125 44.2421875 C-27.97830078 45.11230469 -27.97830078 45.11230469 -28 46 C-28.66 45.67 -29.32 45.34 -30 45 C-30 44.34 -30 43.68 -30 43 C-33.3 43 -36.6 43 -40 43 C-40 42.67 -40 42.34 -40 42 C-37.36 42 -34.72 42 -32 42 C-32 36.72 -32 31.44 -32 26 C-31.34 26 -30.68 26 -30 26 C-30.103125 25.01 -30.20625 24.02 -30.3125 23 C-30.32223565 18.21979504 -28.09315839 14.54085237 -25 11 C-23.68909032 10.29025496 -22.35365569 9.62437049 -21 9 C-19.71052202 8.04552042 -18.44000044 7.06501053 -17.1875 6.0625 C-11.73479959 1.92492214 -7.06966955 -0.51729289 0 0 Z M-29 20 C-28 22 -28 22 -28 22 Z " fill="#3B5C80" transform="translate(61,118)"/>
<path d="M0 0 C0.33 0 0.66 0 1 0 C1 10.89 1 21.78 1 33 C7.435 32.505 7.435 32.505 14 32 C13.855625 31.05125 13.71125 30.1025 13.5625 29.125 C12.9224616 24.43138508 12.47135438 19.7135438 12 15 C25.365 15.495 25.365 15.495 39 16 C39 16.66 39 17.32 39 18 C39.66 18 40.32 18 41 18 C41.09764874 22.78478822 40.77112541 27.27685687 40 32 C41.65 32.33 43.3 32.66 45 33 C45 33.33 45 33.66 45 34 C43.72125 33.95875 42.4425 33.9175 41.125 33.875 C38.98128508 33.75787127 38.98128508 33.75787127 37 34 C36.34 34.66 35.68 35.32 35 36 C32.27302777 36.17170903 29.66093532 36.2324568 26.9375 36.1875 C26.19177734 36.18685547 25.44605469 36.18621094 24.67773438 36.18554688 C19.14028159 36.14028159 19.14028159 36.14028159 18 35 C16.58672053 34.84379445 15.1664541 34.74943827 13.74609375 34.68359375 C12.9770874 34.64548584 12.20808105 34.60737793 11.41577148 34.56811523 C10.43294189 34.52501221 9.4501123 34.48190918 8.4375 34.4375 C5.323125 34.293125 2.20875 34.14875 -1 34 C-0.67 22.78 -0.34 11.56 0 0 Z " fill="#C6DAF7" transform="translate(221,48)"/>
<path d="M0 0 C2.65526273 0.59005838 4.46075651 1.30172538 6.15234375 3.4921875 C8.80708267 8.32080698 9.61511852 13.03176425 10.359375 18.44140625 C11.29000952 23.6109675 12.82289988 28.59018983 14.41186523 33.59326172 C16.09301618 39.19627197 16.42643402 43.71522366 14.01953125 49.2578125 C11.14566415 53.703471 8.25372474 56.83443741 4 60 C4.72907249 49.39007664 4.72907249 49.39007664 6.0625 45.125 C6.94057979 42.19806737 7.26711969 40.02735651 7 37 C5.18884044 35.18884044 2.38721773 35.61800552 -0.0625 35.4375 C-1.16722656 35.35371094 -2.27195312 35.26992187 -3.41015625 35.18359375 C-4.26480469 35.12300781 -5.11945313 35.06242187 -6 35 C-4.8445405 27.8239884 -3.28085012 20.83091382 -1.32128906 13.8359375 C-0.04882154 9.05396125 0.16350024 4.89955704 0 0 Z M6 8 C7 10 7 10 7 10 Z " fill="#EEC16F" transform="translate(125,93)"/>
<path d="M0 0 C1.32 0.99 2.64 1.98 4 3 C4.33 2.34 4.66 1.68 5 1 C5.99 11.23 6.98 21.46 8 32 C5.36 32.33 2.72 32.66 0 33 C-0.14368684 41.71700174 0.28038418 50.31320899 1 59 C-5.14355548 53.5390618 -8.65836453 47.03302262 -9.21875 38.77734375 C-8.96361474 34.3717045 -7.90621013 30.71652074 -6.5 26.5625 C-6.14228516 25.46518555 -6.14228516 25.46518555 -5.77734375 24.34570312 C-5.19403828 22.5607884 -4.59830065 20.77994443 -4 19 C-5.98 19 -7.96 19 -10 19 C-9.38125 18.731875 -8.7625 18.46375 -8.125 18.1875 C-5.7004767 17.04443152 -5.7004767 17.04443152 -4 14 C-3.34 13.01 -2.68 12.02 -2 11 C-1.58217613 8.78757151 -1.58217613 8.78757151 -1.4375 6.4375 C-1.09589041 2.19178082 -1.09589041 2.19178082 0 0 Z " fill="#EBBD6E" transform="translate(65,98)"/>
<path d="M0 0 C0.33 0 0.66 0 1 0 C1.99 4.62 2.98 9.24 4 14 C-10.85 14 -25.7 14 -41 14 C-39.35 11.69 -37.7 9.38 -36 7 C-35.67 6.01 -35.34 5.02 -35 4 C-23.45 4.33 -11.9 4.66 0 5 C0 3.35 0 1.7 0 0 Z " fill="#3C6893" transform="translate(76,225)"/>
<path d="M0 0 C0.99 0.5259375 0.99 0.5259375 2 1.0625 C5.00435807 2.0013619 6.03047625 1.96616521 9 1.4375 C12.23361215 0.89856464 12.86340539 0.93454842 16 2.4375 C16.66 2.953125 17.32 3.46875 18 4 C17.04064246 10.44344613 15.70518548 14.40684274 11 19 C7.75163761 21.30528944 4.92675367 21.48082698 1 21 C-4.1764366 18.16528472 -6.28247104 13.45003603 -8 8 C-8 6.68 -8 5.36 -8 4 C-7.05125 3.896875 -6.1025 3.79375 -5.125 3.6875 C-1.70892499 3.31460705 -1.70892499 3.31460705 0 0 Z " fill="#F4BBA8" transform="translate(92,85)"/>
<path d="M0 0 C19.8 0 39.6 0 60 0 C60 1.98 60 3.96 60 6 C52.32463373 6.02312821 44.64927104 6.04091753 36.97387791 6.05181217 C33.41022578 6.05703995 29.84659743 6.06413569 26.28295898 6.07543945 C22.18993903 6.08834176 18.0969442 6.09322906 14.00390625 6.09765625 C12.07581871 6.10539818 12.07581871 6.10539818 10.10877991 6.11329651 C8.33705666 6.11340981 8.33705666 6.11340981 6.52954102 6.11352539 C4.96067894 6.11685631 4.96067894 6.11685631 3.36012268 6.12025452 C1 6 1 6 0 5 C0 3.35 0 1.7 0 0 Z " fill="#D6EFF3" transform="translate(121,248)"/>
<path d="M0 0 C16.83 0 33.66 0 51 0 C51 0.66 51 1.32 51 2 C34.83 2 18.66 2 2 2 C2 26.75 2 51.5 2 77 C18.17 77 34.34 77 51 77 C51 77.33 51 77.66 51 78 C34.17 78 17.34 78 0 78 C0 52.26 0 26.52 0 0 Z " fill="#FBFDFE" transform="translate(276,161)"/>
<path d="M0 0 C0.66 0 1.32 0 2 0 C2.10957031 0.59167969 2.21914062 1.18335937 2.33203125 1.79296875 C3.25228178 6.37925799 4.13660887 10.18214516 7 14 C7.66 14.33 8.32 14.66 9 15 C8.84402344 15.556875 8.68804687 16.11375 8.52734375 16.6875 C7.78218384 19.95516419 7.61802652 23.22499156 7.37890625 26.5625 C6.98897874 29.07089964 6.25288881 30.80871269 5 33 C3.28234303 31.55954416 1.58006508 30.10757778 -0.1015625 28.625 C-2.13761108 26.83419199 -2.13761108 26.83419199 -5.0625 24.8125 C-7.42026553 21.38993713 -7.08884107 20.5342473 -6.375 16.5625 C-5.93306329 14.704357 -5.47595198 12.84972246 -5 11 C-4.66117344 9.00092329 -4.32455828 7.00144274 -4 5 C-3.34 5 -2.68 5 -2 5 C-1.34 3.35 -0.68 1.7 0 0 Z M-4 8 C-3 10 -3 10 -3 10 Z " fill="#46A9B4" transform="translate(242,28)"/>
<path d="M0 0 C1.08858688 3.22971472 1.01269431 4.91908926 -0.4375 8 C-2.61501731 12.15568444 -5.08805986 13.2525054 -9.29296875 15 C-11.37135446 15.9623727 -11.37135446 15.9623727 -12 19.125 C-12 20.07375 -12 21.0225 -12 22 C-12 22.66 -12 23.32 -12 24 C-19.25723473 23.40514469 -19.25723473 23.40514469 -22.0625 21.875 C-23.67273717 18.65452566 -22.93402563 16.3858429 -22 13 C-18.66172639 8.36949145 -14.62543036 6.81984149 -9.4453125 4.91015625 C-4.34360027 3.09375647 -4.34360027 3.09375647 0 0 Z " fill="#E7ECF2" transform="translate(226,197)"/>
<path d="M0 0 C1.72974441 0.00015918 3.45949355 0.0058569 5.18920898 0.01586914 C6.09783188 0.01728409 7.00645477 0.01869904 7.94261169 0.02015686 C10.85687494 0.02577346 13.77106254 0.03832874 16.68530273 0.05102539 C18.65600475 0.05603825 20.62670797 0.06060153 22.59741211 0.06469727 C27.43923832 0.07574828 32.28100768 0.09302401 37.12280273 0.11352539 C37.12280273 2.09352539 37.12280273 4.07352539 37.12280273 6.11352539 C23.26280273 6.11352539 9.40280273 6.11352539 -4.87719727 6.11352539 C-4.87719727 0.14280566 -4.87719727 0.14280566 0 0 Z " fill="#D0ECF4" transform="translate(134.877197265625,238.886474609375)"/>
<path d="M0 0 C10.89 0 21.78 0 33 0 C32.34 0.33 31.68 0.66 31 1 C30.62633887 2.99285937 30.29259485 4.99363529 30 7 C29 8 29 8 26.40795898 8.11352539 C25.28204346 8.10828857 24.15612793 8.10305176 22.99609375 8.09765625 C21.78115234 8.09443359 20.56621094 8.09121094 19.31445312 8.08789062 C18.03505859 8.07951172 16.75566406 8.07113281 15.4375 8.0625 C14.15423828 8.05798828 12.87097656 8.05347656 11.54882812 8.04882812 C8.36583978 8.03699545 5.18294238 8.02051068 2 8 C0.74335022 5.09399739 0 3.20395416 0 0 Z " fill="#3B6A95" transform="translate(95,231)"/>
<path d="M0 0 C1.32 0.33 2.64 0.66 4 1 C5.83151879 1.09157594 7.66620016 1.13003791 9.5 1.125 C10.4384375 1.12757813 11.376875 1.13015625 12.34375 1.1328125 C14.7214263 1.01392868 16.72683096 0.67551722 19 0 C19.02696365 1.79158489 19.04637917 3.58328473 19.0625 5.375 C19.07410156 6.37273437 19.08570313 7.37046875 19.09765625 8.3984375 C19 11 19 11 18 13 C12.06 13 6.12 13 0 13 C0 8.71 0 4.42 0 0 Z " fill="#EAEEF4" transform="translate(171,182)"/>
<path d="M0 0 C2.58563309 1.65193225 3.84283837 2.69723787 5.25 5.4375 C5.53005276 9.35823865 5.30761358 12.67709617 4.25 16.4375 C4.1675 17.613125 4.085 18.78875 4 20 C3.25 23.4375 3.25 23.4375 0.9375 25.1875 C0.050625 25.6 -0.83625 26.0125 -1.75 26.4375 C-2.41 26.994375 -3.07 27.55125 -3.75 28.125 C-6.23551555 29.75611958 -7.83475321 29.68043723 -10.75 29.4375 C-9.986875 28.73625 -9.22375 28.035 -8.4375 27.3125 C-5.21014373 23.85997934 -2.90981379 21.09322914 -2.6171875 16.23046875 C-2.86330679 11.86547078 -3.34794614 9.90991328 -6.25 6.5 C-7.075 5.819375 -7.9 5.13875 -8.75 4.4375 C-9.08 3.7775 -9.41 3.1175 -9.75 2.4375 C-3.54600749 -0.72531971 -3.54600749 -0.72531971 0 0 Z M2.25 17.4375 C3.25 21.4375 3.25 21.4375 3.25 21.4375 Z " fill="#BAD3F6" transform="translate(328.75,131.5625)"/>
<path d="M0 0 C2.31 0 4.62 0 7 0 C7 8.91 7 17.82 7 27 C6.67 27 6.34 27 6 27 C6 18.42 6 9.84 6 1 C5.34 1 4.68 1 4 1 C4 11.23 4 21.46 4 32 C5.32 32 6.64 32 8 32 C8 21.44 8 10.88 8 0 C8.33 0 8.66 0 9 0 C9 11.22 9 22.44 9 34 C6.03 34 3.06 34 0 34 C0 22.78 0 11.56 0 0 Z " fill="#E9EDF3" transform="translate(208,50)"/>
<path d="M0 0 C2.625 2.4375 2.625 2.4375 5 5 C7.17346568 5.86119134 7.17346568 5.86119134 9 6 C9 6.66 9 7.32 9 8 C8.071875 8.12375 8.071875 8.12375 7.125 8.25 C4.32494581 9.23825442 4.25886068 10.40359985 3 13 C2.319375 13.33 1.63875 13.66 0.9375 14 C-1.21280279 14.8295822 -1.21280279 14.8295822 -1.75 17.125 C-1.87375 18.053125 -1.87375 18.053125 -2 19 C-2.66 19 -3.32 19 -4 19 C-4 17.68 -4 16.36 -4 15 C-4.78375 14.7525 -5.5675 14.505 -6.375 14.25 C-9.43941457 12.79075497 -9.61725761 11.94985044 -11 9 C-13.0335948 7.73195434 -13.0335948 7.73195434 -15 7 C-14.401875 6.938125 -13.80375 6.87625 -13.1875 6.8125 C-10.13084514 5.67717105 -9.53365974 3.78847225 -8 1 C-5.11138291 -0.44430855 -3.20352299 -0.37688506 0 0 Z " fill="#C9D4E3" transform="translate(316,140)"/>
<path d="M0 0 C1.98 0 3.96 0 6 0 C5.3105043 7.47349939 3.95100009 14.71545333 2.4375 22.0625 C2.08655273 23.79016602 2.08655273 23.79016602 1.72851562 25.55273438 C1.15586745 28.36922846 0.57961941 31.18493382 0 34 C-1.98 34 -3.96 34 -6 34 C-4.55847904 22.54370188 -2.34190615 11.30026559 0 0 Z " fill="#EAEEF5" transform="translate(178,50)"/>
<path d="M0 0 C1.2065625 0.0309375 1.2065625 0.0309375 2.4375 0.0625 C1.92227913 7.98243224 0.64511557 15.51999952 -1.125 23.25 C-1.35896484 24.29736328 -1.59292969 25.34472656 -1.83398438 26.42382812 C-2.40401233 28.9715041 -2.98024836 31.51759518 -3.5625 34.0625 C-5.5425 34.0625 -7.5225 34.0625 -9.5625 34.0625 C-8.93968547 30.43712108 -8.31383919 26.8122715 -7.6875 23.1875 C-7.51347656 22.17429687 -7.33945313 21.16109375 -7.16015625 20.1171875 C-6.307969 15.19343894 -5.43450133 10.27456213 -4.4921875 5.3671875 C-4.33733887 4.56007324 -4.18249023 3.75295898 -4.02294922 2.92138672 C-3.3101502 0.0437347 -3.04841663 0.07435163 0 0 Z " fill="#EAEEF5" transform="translate(189.5625,49.9375)"/>
<path d="M0 0 C0.99 0 1.98 0 3 0 C3.33 3.96 3.66 7.92 4 12 C17.86 12.33 31.72 12.66 46 13 C46 11.02 46 9.04 46 7 C46.33 7 46.66 7 47 7 C47 9.31 47 11.62 47 14 C40.73 14.33 34.46 14.66 28 15 C28 15.33 28 15.66 28 16 C17.11 16 6.22 16 -5 16 C-5 13.69 -5 11.38 -5 9 C-12.26 9 -19.52 9 -27 9 C-27 8.67 -27 8.34 -27 8 C-19.08 7.67 -11.16 7.34 -3 7 C-2.01 4.69 -1.02 2.38 0 0 Z " fill="#9E493E" transform="translate(126,232)"/>
<path d="M0 0 C1.25554687 -0.01417969 2.51109375 -0.02835938 3.8046875 -0.04296875 C7.125 0.1875 7.125 0.1875 10.125 2.1875 C10.39186213 4.88290315 10.47318073 7.34597464 10.41796875 10.0390625 C10.41372391 10.81309418 10.40947906 11.58712585 10.40510559 12.38461304 C10.38828998 14.86092677 10.35063395 17.33643158 10.3125 19.8125 C10.29745682 21.48957159 10.28376778 23.16665592 10.27148438 24.84375 C10.23837721 28.95864581 10.18657637 33.07293569 10.125 37.1875 C9.795 37.1875 9.465 37.1875 9.125 37.1875 C8.795 29.9275 8.465 22.6675 8.125 15.1875 C8.125 17.4975 8.125 19.8075 8.125 22.1875 C7.465 21.8575 6.805 21.5275 6.125 21.1875 C6.125 25.4775 6.125 29.7675 6.125 34.1875 C5.465 32.8675 4.805 31.5475 4.125 30.1875 C3.465 29.8575 2.805 29.5275 2.125 29.1875 C3.775 20.6075 5.425 12.0275 7.125 3.1875 C5.145 3.5175 3.165 3.8475 1.125 4.1875 C1.125 3.5275 1.125 2.8675 1.125 2.1875 C0.135 2.6825 0.135 2.6825 -0.875 3.1875 C-2.87460012 3.227492 -4.87547242 3.23096799 -6.875 3.1875 C-6.92325928 3.78030762 -6.97151855 4.37311523 -7.02124023 4.98388672 C-7.6071833 11.52023744 -8.65894206 17.87904944 -9.9375 24.3125 C-10.2169043 25.74722656 -10.2169043 25.74722656 -10.50195312 27.2109375 C-10.95559056 29.53728331 -11.41332038 31.86273936 -11.875 34.1875 C-12.205 34.1875 -12.535 34.1875 -12.875 34.1875 C-13.22050438 26.94962618 -11.9130754 20.31894109 -10.4375 13.25 C-10.20740234 12.10208984 -9.97730469 10.95417969 -9.74023438 9.77148438 C-7.75237858 0.03963384 -7.75237858 0.03963384 0 0 Z " fill="#C6CDD8" transform="translate(184.875,46.8125)"/>
<path d="M0 0 C3.3 0 6.6 0 10 0 C10 25.74 10 51.48 10 78 C6.7 78 3.4 78 0 78 C0 77.67 0 77.34 0 77 C2.64 77 5.28 77 8 77 C8 52.25 8 27.5 8 2 C5.36 2 2.72 2 0 2 C0 1.34 0 0.68 0 0 Z " fill="#C6CEDA" transform="translate(327,161)"/>
<path d="M0 0 C0.33 0 0.66 0 1 0 C3.18751681 7.91467698 3.23376006 15.38458009 3.125 23.5625 C3.11597656 24.85736328 3.10695312 26.15222656 3.09765625 27.48632812 C3.07425094 30.65774771 3.04146228 33.82877373 3 37 C-0.99904969 37 -2.80200422 35.27413033 -6 33 C-5.81824219 32.37738281 -5.63648438 31.75476563 -5.44921875 31.11328125 C-2.66976639 20.89344874 -1.3746466 10.48444291 0 0 Z " fill="#487BA3" transform="translate(220,147)"/>
<path d="M0 0 C3.91939465 3.80411834 7.49102731 7.81576108 11 12 C7.94028797 14.93222403 5.08448754 15.75230862 0.97265625 16.12890625 C-1 16 -1 16 -4 14.375 C-6 12 -6 12 -6.6875 9.6875 C-5.63479104 5.57236499 -2.90731343 3.00249333 0 0 Z " fill="#E4A191" transform="translate(56,198)"/>
<path d="M0 0 C1.87365234 0.14501953 1.87365234 0.14501953 3.78515625 0.29296875 C6.9375 0.8125 6.9375 0.8125 8.9375 2.8125 C6.9575 2.8125 4.9775 2.8125 2.9375 2.8125 C3.040625 3.575625 3.14375 4.33875 3.25 5.125 C3.0953125 6.4553125 3.0953125 6.4553125 2.9375 7.8125 C0.5625 9.375 0.5625 9.375 -2.0625 10.8125 C-3.39043606 12.87950655 -3.39043606 12.87950655 -4.0625 14.8125 C-5.3825 14.8125 -6.7025 14.8125 -8.0625 14.8125 C-11.09910566 8.61782446 -11.09910566 8.61782446 -10.9375 5.0625 C-8.71347402 -0.65642396 -5.81602197 -0.51123254 0 0 Z " fill="#EBEFF5" transform="translate(309.0625,132.1875)"/>
<path d="M0 0 C4.04350259 1.79373423 7.48980686 4.36649653 11.0625 6.9375 C11.68705078 7.38029297 12.31160156 7.82308594 12.95507812 8.27929688 C13.55900391 8.71177734 14.16292969 9.14425781 14.78515625 9.58984375 C15.33051025 9.98034912 15.87586426 10.37085449 16.43774414 10.77319336 C18.1101084 12.08646581 19.59331029 13.40349574 21 15 C21 15.66 21 16.32 21 17 C17.9455869 17.29945226 15.0466808 17.42058557 12 17 C9.1875 14.6875 9.1875 14.6875 7 12 C3.96123694 9.33819054 3.96123694 9.33819054 0 9 C-0.84454356 5.62182575 -1.10844919 3.32534757 0 0 Z M0 5 C1 7 1 7 1 7 Z " fill="#63BDCC" transform="translate(226,45)"/>
<path d="M0 0 C-0.33 2.31 -0.66 4.62 -1 7 C-1.66 7 -2.32 7 -3 7 C-3.33 9.31 -3.66 11.62 -4 14 C-4.66 14 -5.32 14 -6 14 C-6.66 16.31 -7.32 18.62 -8 21 C-8.99 21 -9.98 21 -11 21 C-11 20.34 -11 19.68 -11 19 C-11.66 18.67 -12.32 18.34 -13 18 C-12.17453233 4.4555917 -12.17453233 4.4555917 -9.44921875 1.078125 C-6.26715145 -0.80249721 -3.40659037 -1.63516338 0 0 Z " fill="#4BA7B5" transform="translate(271,45)"/>
<path d="M0 0 C0.33 0 0.66 0 1 0 C1.66 8.25 2.32 16.5 3 25 C-3.42935892 18.57064108 -6.1994948 13.80555717 -7.01953125 4.78515625 C-7 3 -7 3 -6 2 C-4.00041636 1.95919217 -1.99954746 1.95745644 0 2 C0 1.34 0 0.68 0 0 Z " fill="#F3BCA9" transform="translate(63,132)"/>
<path d="M0 0 C1.99954746 -0.04254356 4.00041636 -0.04080783 6 0 C7 1 7 1 7.375 3.5625 C6.71121175 9.64722565 3.31464669 14.12023092 -1.3125 18 C-2.199375 18.66 -3.08625 19.32 -4 20 C-3.6143354 12.88515313 -2.60900601 6.64558134 0 0 Z " fill="#F1BAA7" transform="translate(133,133)"/>
<path d="M0 0 C0.66 0.33 1.32 0.66 2 1 C2 2.65 2 4.3 2 6 C3.65 6.33 5.3 6.66 7 7 C7.061875 7.61875 7.12375 8.2375 7.1875 8.875 C7.828919 11.27761141 7.828919 11.27761141 10.5625 12.25 C11.366875 12.4975 12.17125 12.745 13 13 C13 14.65 13 16.3 13 18 C11.68 18 10.36 18 9 18 C8.67 18.66 8.34 19.32 8 20 C8 19.34 8 18.68 8 18 C7.443125 17.731875 6.88625 17.46375 6.3125 17.1875 C5.549375 16.795625 4.78625 16.40375 4 16 C3.0925 15.67 2.185 15.34 1.25 15 C-1 13 -1 13 -1.3515625 10.6875 C-1.38509369 6.84258977 -1.22143729 3.66431187 0 0 Z " fill="#F7FAFD" transform="translate(299,142)"/>
<path d="M0 0 C3.63 0.33 7.26 0.66 11 1 C9.67357628 7.63211858 6.60732614 12.09042019 2 17 C-0.76011169 18.37470679 -1.84766057 18.31523394 -5 18 C-5.66 17.34 -6.32 16.68 -7 16 C-3.535 15.505 -3.535 15.505 0 15 C-1.32 14.34 -2.64 13.68 -4 13 C-4 12.34 -4 11.68 -4 11 C-3.34 10.67 -2.68 10.34 -2 10 C-2.33 8.68 -2.66 7.36 -3 6 C-2.34 5.67 -1.68 5.34 -1 5 C-0.67 5.66 -0.34 6.32 0 7 C1.32 6.67 2.64 6.34 4 6 C4 5.01 4 4.02 4 3 C2.68 2.67 1.36 2.34 0 2 C0 1.34 0 0.68 0 0 Z " fill="#E1A997" transform="translate(102,70)"/>
<path d="M0 0 C4.49797113 1.68673918 8.72886302 3.81673892 13 6 C13 6.66 13 7.32 13 8 C14.65 8.33 16.3 8.66 18 9 C17.67 10.32 17.34 11.64 17 13 C15.68 13 14.36 13 13 13 C12.67 13.66 12.34 14.32 12 15 C11.67 14.01 11.34 13.02 11 12 C11 12.99 11 13.98 11 15 C11.66 15.66 12.32 16.32 13 17 C11.68 17 10.36 17 9 17 C8.87625 16.360625 8.7525 15.72125 8.625 15.0625 C8.41875 14.381875 8.2125 13.70125 8 13 C7.34 12.67 6.68 12.34 6 12 C6.66 12 7.32 12 8 12 C8 11.01 8 10.02 8 9 C7.01 8.67 6.02 8.34 5 8 C6.32 8 7.64 8 9 8 C9 7.34 9 6.68 9 6 C4.545 7.485 4.545 7.485 0 9 C0 6.03 0 3.06 0 0 Z " fill="#ECB8A6" transform="translate(89,64)"/>
<path d="M0 0 C13.365 0.495 13.365 0.495 27 1 C27 1.66 27 2.32 27 3 C27.66 3 28.32 3 29 3 C29 3.66 29 4.32 29 5 C19.43 5 9.86 5 0 5 C0 3.35 0 1.7 0 0 Z " fill="#FAFCFE" transform="translate(233,63)"/>
<path d="M0 0 C36.3 0 72.6 0 110 0 C110 0.33 110 0.66 110 1 C73.7 1 37.4 1 0 1 C0 0.67 0 0.34 0 0 Z " fill="#C4C4C6" transform="translate(156,90)"/>
<path d="M0 0 C3.387353 3.387353 6.3626316 6.53905444 9.3125 10.25 C10.00988281 11.12140625 10.70726562 11.9928125 11.42578125 12.890625 C13 15 13 15 13 16 C8.71 16 4.42 16 0 16 C0 10.72 0 5.44 0 0 Z " fill="#3C5C80" transform="translate(40,179)"/>
<path d="M0 0 C1.32 0 2.64 0 4 0 C4 10.23 4 20.46 4 31 C2.68 31 1.36 31 0 31 C0 20.77 0 10.54 0 0 Z " fill="#D6DBE3" transform="translate(199,51)"/>
<path d="M0 0 C2.375 0.75 2.375 0.75 3.375 1.75 C3.83912214 8.94389313 3.83912214 8.94389313 2.1875 11.8125 C0.375 12.75 0.375 12.75 -2.25 12.5625 C-4.625 11.75 -4.625 11.75 -5.625 9.75 C-6.07853794 3.51385337 -6.07853794 3.51385337 -4.4375 0.75 C-2.625 -0.25 -2.625 -0.25 0 0 Z " fill="#5489AF" transform="translate(100.625,142.25)"/>
<path d="M0 0 C2.22972273 0.11465421 4.45878753 0.24214766 6.6875 0.375 C7.92886719 0.44460937 9.17023438 0.51421875 10.44921875 0.5859375 C15.8270818 1.21305904 18.92165797 2.36673326 22.3125 6.625 C22.82425781 7.25664062 23.33601563 7.88828125 23.86328125 8.5390625 C24.23839844 9.02117187 24.61351562 9.50328125 25 10 C24.67 10.66 24.34 11.32 24 12 C22.53515625 10.73046875 21.0703125 9.4609375 19.60546875 8.19140625 C15.85831831 5.41067417 11.74415861 5.88370769 7.3125 5.9375 C6.61060547 5.94201172 5.90871094 5.94652344 5.18554688 5.95117188 C3.45699462 5.96293073 1.72848635 5.98086546 0 6 C0 4.02 0 2.04 0 0 Z " fill="#05A0B6" transform="translate(127,157)"/>
<path d="M0 0 C29.7 0 59.4 0 90 0 C90 0.33 90 0.66 90 1 C45.945 1.495 45.945 1.495 1 2 C0.67 1.34 0.34 0.68 0 0 Z " fill="#042EF7" transform="translate(178,240)"/>
<path d="M0 0 C0.80060349 0.00007553 1.60120697 0.00015106 2.42607117 0.00022888 C3.71527214 0.00797081 3.71527214 0.00797081 5.03051758 0.01586914 C5.91411453 0.01728409 6.79771149 0.01869904 7.70808411 0.02015686 C10.53044011 0.0257547 13.3527168 0.03830678 16.17504883 0.05102539 C18.08845914 0.05604067 20.0018707 0.06060353 21.9152832 0.06469727 C26.60606897 0.07572342 31.29679545 0.09298656 35.98754883 0.11352539 C36.48254883 1.59852539 36.48254883 1.59852539 36.98754883 3.11352539 C22.13754883 3.11352539 7.28754883 3.11352539 -8.01245117 3.11352539 C-6.31524173 -0.2808935 -3.41850908 -0.01078394 0 0 Z " fill="#39729A" transform="translate(43.012451171875,235.886474609375)"/>
<path d="M0 0 C0.66 0 1.32 0 2 0 C2.33 6.27 2.66 12.54 3 19 C3.33 19 3.66 19 4 19 C4 22.96 4 26.92 4 31 C2.68 31 1.36 31 0 31 C0 20.77 0 10.54 0 0 Z " fill="#DADFE7" transform="translate(212,51)"/>
<path d="M0 0 C0.33 0 0.66 0 1 0 C1 25.41 1 50.82 1 77 C0.67 77 0.34 77 0 77 C0 51.59 0 26.18 0 0 Z " fill="#FFFFFF" transform="translate(338,161)"/>
<path d="M0 0 C2.375 0.1875 2.375 0.1875 5 1 C6.0260734 2.31337396 7.02727325 3.64664105 8 5 C10.09415804 5.79623822 10.09415804 5.79623822 12 6 C12 6.66 12 7.32 12 8 C11.1028125 8.12375 11.1028125 8.12375 10.1875 8.25 C7.4033704 9.20455872 6.56688858 10.57132271 5 13 C2.29727467 10.12835434 1.05208163 8.69008159 0.75 4.6875 C0.8325 3.800625 0.915 2.91375 1 2 C0.34 1.67 -0.32 1.34 -1 1 C-0.67 0.67 -0.34 0.34 0 0 Z " fill="#D6DEE9" transform="translate(313,140)"/>
<path d="M0 0 C20.46 0 40.92 0 62 0 C62 0.33 62 0.66 62 1 C41.54 1 21.08 1 0 1 C0 0.67 0 0.34 0 0 Z " fill="#0444FD" transform="translate(18,240)"/>
<path d="M0 0 C20.13 0 40.26 0 61 0 C61 0.33 61 0.66 61 1 C40.87 1 20.74 1 0 1 C0 0.67 0 0.34 0 0 Z " fill="#FFFFFF" transform="translate(276,240)"/>
<path d="M0 0 C0.33 1.98 0.66 3.96 1 6 C0.2575 6.433125 -0.485 6.86625 -1.25 7.3125 C-3.96073187 8.88132812 -3.96073187 8.88132812 -6 10.6875 C-8.48551555 12.31861958 -10.08475321 12.24293723 -13 12 C-12.236875 11.29875 -11.47375 10.5975 -10.6875 9.875 C-7.87978033 7.1442636 -7.87978033 7.1442636 -6.375 3.75 C-4.72919978 0.45839956 -3.64718266 0 0 0 Z " fill="#BFD5F5" transform="translate(331,149)"/>
<path d="M0 0 C1.65 0 3.3 0 5 0 C5.0825 0.61875 5.165 1.2375 5.25 1.875 C5.81258459 4.18437567 5.81258459 4.18437567 8.0625 5.25 C8.701875 5.4975 9.34125 5.745 10 6 C10 7.32 10 8.64 10 10 C7.25 9.875 7.25 9.875 4 9 C1.39476132 5.84629002 0 4.13351845 0 0 Z " fill="#E9EDF3" transform="translate(301,149)"/>
<path d="M0 0 C4.84129347 -0.17419947 8.49643871 -0.26062704 12.29296875 3.15625 C12.29296875 4.14625 12.29296875 5.13625 12.29296875 6.15625 C11.63296875 5.681875 10.97296875 5.2075 10.29296875 4.71875 C6.46598004 2.72552671 3.58867321 2.4426303 -0.70703125 2.15625 C-1.03703125 2.48625 -1.36703125 2.81625 -1.70703125 3.15625 C-3.32712484 3.36529433 -4.95386006 3.52410857 -6.58203125 3.65625 C-9.55625974 3.89904416 -11.85778339 4.20650071 -14.70703125 5.15625 C-13.98828125 3.203125 -13.98828125 3.203125 -12.70703125 1.15625 C-10.67578125 0.546875 -10.67578125 0.546875 -8.20703125 0.40625 C-7.31628906 0.3546875 -6.42554687 0.303125 -5.5078125 0.25 C-3.67101343 0.18851719 -1.83477395 0.10590326 0 0 Z " fill="#D04402" transform="translate(101.70703125,41.84375)"/>
<path d="M0 0 C0.33 0 0.66 0 1 0 C1 18.81 1 37.62 1 57 C0.67 57 0.34 57 0 57 C0 38.19 0 19.38 0 0 Z " fill="#0000FA" transform="translate(9,175)"/>
<path d="M0 0 C13.365 0.495 13.365 0.495 27 1 C27 1.66 27 2.32 27 3 C18.42 3 9.84 3 1 3 C0.67 2.01 0.34 1.02 0 0 Z " fill="#C8DAF9" transform="translate(233,63)"/>
<path d="M0 0 C18.48 0 36.96 0 56 0 C56 0.33 56 0.66 56 1 C37.52 1 19.04 1 0 1 C0 0.67 0 0.34 0 0 Z " fill="#C64800" transform="translate(122,257)"/>
<path d="M0 0 C1.0725 0.103125 2.145 0.20625 3.25 0.3125 C3.58 0.9725 3.91 1.6325 4.25 2.3125 C3.1775 2.89 2.105 3.4675 1 4.0625 C-2.0526529 5.79625824 -4.39597393 7.6759908 -6.75 10.3125 C-7.5 8.125 -7.5 8.125 -7.75 5.3125 C-5.5878604 1.25848826 -4.64600217 0.38716685 0 0 Z " fill="#C6DEFB" transform="translate(305.75,131.6875)"/>
<path d="M0 0 C-0.33 3.63 -0.66 7.26 -1 11 C-1.66 11 -2.32 11 -3 11 C-3.33 9.02 -3.66 7.04 -4 5 C-4.99 6.32 -5.98 7.64 -7 9 C-8.65 8.67 -10.3 8.34 -12 8 C-4.43243243 0 -4.43243243 0 0 0 Z " fill="#68CCDB" transform="translate(261,34)"/>
<path d="M0 0 C4.75 1.875 4.75 1.875 7 3 C7 3.66 7 4.32 7 5 C6.34 5 5.68 5 5 5 C4.67 5.99 4.34 6.98 4 8 C2.68 8.33 1.36 8.66 0 9 C0 6.03 0 3.06 0 0 Z " fill="#F5BEAB" transform="translate(89,64)"/>
<path d="M0 0 C4.04420651 1.77945087 7.46078487 4.39529673 11 7 C10.67 7.66 10.34 8.32 10 9 C8.02 7.68 6.04 6.36 4 5 C2.02 5.99 2.02 5.99 0 7 C-1.04449911 3.86650268 -0.93423645 3.01031744 0 0 Z " fill="#68C5DE" transform="translate(226,45)"/>
<path d="M0 0 C4.62 0 9.24 0 14 0 C12.35 1.32 10.7 2.64 9 4 C8.67 3.34 8.34 2.68 8 2 C7.01 2.495 7.01 2.495 6 3 C3.6670134 3.04022391 1.33293334 3.04320247 -1 3 C-0.67 2.01 -0.34 1.02 0 0 Z " fill="#C7CED9" transform="translate(178,47)"/>
<path d="M0 0 C1.32 1.32 2.64 2.64 4 4 C-5.24 4 -14.48 4 -24 4 C-24 3.67 -24 3.34 -24 3 C-16.08 2.67 -8.16 2.34 0 2 C0 1.34 0 0.68 0 0 Z " fill="#BEBEC1" transform="translate(300,156)"/>
<path d="M0 0 C4.2742558 1.5830577 6.26531794 4.50568404 9 8 C8.67 8.66 8.34 9.32 8 10 C7.0925 9.21625 6.185 8.4325 5.25 7.625 C2.94809764 5.69947504 0.78422793 4.17794259 -2 3 C-1.34 2.01 -0.68 1.02 0 0 Z " fill="#0E9CB1" transform="translate(143,159)"/>
<path d="M0 0 C0.33 0 0.66 0 1 0 C1.33 4.62 1.66 9.24 2 14 C-2.875 9.375 -2.875 9.375 -4 6 C-3.01 6 -2.02 6 -1 6 C-0.67 4.02 -0.34 2.04 0 0 Z " fill="#E8BFAF" transform="translate(64,143)"/>
<path d="M0 0 C2 3 2 3 2 6 C3.32 6.33 4.64 6.66 6 7 C3.03 7 0.06 7 -3 7 C-3.1875 4.625 -3.1875 4.625 -3 2 C-2.01 1.34 -1.02 0.68 0 0 Z " fill="#407FA5" transform="translate(131,151)"/>
<path d="M0 0 C-2.73354237 2.73354237 -5.27785213 2.72579003 -9.00390625 3.33984375 C-9.99197266 3.66662109 -9.99197266 3.66662109 -11 4 C-11.33 4.99 -11.66 5.98 -12 7 C-12.33 6.01 -12.66 5.02 -13 4 C-10.59615787 0.69471707 -7.61485854 0.1623116 -3.83984375 -0.765625 C-2 -1 -2 -1 0 0 Z " fill="#FEE394" transform="translate(84,89)"/>
<path d="M0 0 C0.66 0 1.32 0 2 0 C3.25664978 2.90600261 4 4.79604584 4 8 C2.35 8 0.7 8 -1 8 C-0.67 5.36 -0.34 2.72 0 0 Z " fill="#415E7D" transform="translate(120,120)"/>
<path d="M0 0 C3.26008643 3.16952847 6.22237877 6.39937989 9 10 C5.62417953 9.39717492 3.65843209 8.12674568 1 6 C0.34 5.67 -0.32 5.34 -1 5 C-0.67 3.35 -0.34 1.7 0 0 Z " fill="#6BCCDB" transform="translate(229,52)"/>
<path d="M0 0 C1.98 0 3.96 0 6 0 C7.53445094 3.06890187 6.54984289 5.70094266 6 9 C5.34 9 4.68 9 4 9 C4 6.69 4 4.38 4 2 C2.68 1.67 1.36 1.34 0 1 C0 0.67 0 0.34 0 0 Z " fill="#B4BDC8" transform="translate(188,48)"/>
<path d="M0 0 C8.58 0 17.16 0 26 0 C26 0.33 26 0.66 26 1 C17.42 1 8.84 1 0 1 C0 0.67 0 0.34 0 0 Z " fill="#ADADAD" transform="translate(193,45)"/>
<path d="M0 0 C2.73625437 1.47336774 3.38708421 2.44772966 4.4375 5.3125 C3.7775 5.3125 3.1175 5.3125 2.4375 5.3125 C2.1075 4.6525 1.7775 3.9925 1.4375 3.3125 C-0.45783342 2.84726937 -0.45783342 2.84726937 -2.625 2.6875 C-3.924375 2.56375 -5.22375 2.44 -6.5625 2.3125 C-4.97918973 -0.85412054 -3.24365117 -0.87024787 0 0 Z " fill="#CDE5FF" transform="translate(328.5625,131.6875)"/>
<path d="M0 0 C3.375 0.75 3.375 0.75 7 2 C7.66 3.32 8.32 4.64 9 6 C4.05 4.02 4.05 4.02 -1 2 C-0.67 1.34 -0.34 0.68 0 0 Z " fill="#FFE194" transform="translate(116,89)"/>
<path d="M0 0 C0.33 0 0.66 0 1 0 C1 6.93 1 13.86 1 21 C0.67 21 0.34 21 0 21 C0 14.07 0 7.14 0 0 Z " fill="#D03A00" transform="translate(77,56)"/>
<path d="M0 0 C0.66 0 1.32 0 2 0 C2.33 1.98 2.66 3.96 3 6 C1.35 6.33 -0.3 6.66 -2 7 C-1.34 4.69 -0.68 2.38 0 0 Z " fill="#D0E6FE" transform="translate(329,149)"/>
<path d="M0 0 C2.5654594 2.5654594 2.54046087 4.47686668 3 8 C1.68 8 0.36 8 -1 8 C-1.93065133 5.39417629 -2.14917407 4.35801776 -1.0625 1.75 C-0.711875 1.1725 -0.36125 0.595 0 0 Z M0 3 C1 5 1 5 1 5 Z " fill="#F1B95C" transform="translate(131,98)"/>
<path d="M0 0 C2.125 0.375 2.125 0.375 4 1 C3.67 3.31 3.34 5.62 3 8 C1 5 1 5 1 3 C0.01 2.67 -0.98 2.34 -2 2 C-1.34 1.34 -0.68 0.68 0 0 Z " fill="#3AABB1" transform="translate(267,44)"/>
<path d="M0 0 C2.91517292 1.07401108 4.77810176 1.77810176 7 4 C6.67 4.99 6.34 5.98 6 7 C3.95880212 5.38405168 1.95927063 3.7143618 0 2 C0 1.34 0 0.68 0 0 Z " fill="#5991BA" transform="translate(264,163)"/>
<path d="M0 0 C0.66 0.33 1.32 0.66 2 1 C-2.30769231 4.93846154 -2.30769231 4.93846154 -5.8125 5.25 C-6.534375 5.1675 -7.25625 5.085 -8 5 C-5.56159764 2.56159764 -3.14759102 1.37707107 0 0 Z " fill="#C4DDFD" transform="translate(326,156)"/>
<path d="M0 0 C1.32 0 2.64 0 4 0 C4 0.66 4 1.32 4 2 C5.65 2.33 7.3 2.66 9 3 C9 3.33 9 3.66 9 4 C1.25 4.125 1.25 4.125 -1 3 C-0.67 2.01 -0.34 1.02 0 0 Z " fill="#D6DEF3" transform="translate(257,78)"/>
<path d="M0 0 C0.66 0.33 1.32 0.66 2 1 C1.67 2.98 1.34 4.96 1 7 C0.34 7 -0.32 7 -1 7 C-1.625 5.1875 -1.625 5.1875 -2 3 C-1.34 2.01 -0.68 1.02 0 0 Z " fill="#F6C97F" transform="translate(68,94)"/>
<path d="M0 0 C0.33 0.66 0.66 1.32 1 2 C3.64 2 6.28 2 9 2 C9 2.33 9 2.66 9 3 C5.37 3 1.74 3 -2 3 C-1.34 2.01 -0.68 1.02 0 0 Z " fill="#A7A7AD" transform="translate(328,157)"/>
<path d="M0 0 C4.62 0 9.24 0 14 0 C14 0.33 14 0.66 14 1 C9.38 1 4.76 1 0 1 C0 0.67 0 0.34 0 0 Z " fill="#CBD7F5" transform="translate(309,131)"/>
<path d="M0 0 C0.33 0 0.66 0 1 0 C1 3.3 1 6.6 1 10 C0.67 10 0.34 10 0 10 C0 6.7 0 3.4 0 0 Z " fill="#BF3300" transform="translate(125,60)"/>
<path d="M0 0 C3.3 0 6.6 0 10 0 C10 0.33 10 0.66 10 1 C6.7 1 3.4 1 0 1 C0 0.67 0 0.34 0 0 Z " fill="#D83700" transform="translate(89,41)"/>
<path d="M0 0 C0.33 0 0.66 0 1 0 C1.33 2.97 1.66 5.94 2 9 C1.34 9 0.68 9 0 9 C0 6.03 0 3.06 0 0 Z " fill="#53DDF6" transform="translate(261,37)"/>
<path d="M0 0 C3.3 0 6.6 0 10 0 C10 0.33 10 0.66 10 1 C6.7 1 3.4 1 0 1 C0 0.67 0 0.34 0 0 Z " fill="#E95300" transform="translate(99,40)"/>
<path d="M0 0 C2.97 0 5.94 0 9 0 C9 0.33 9 0.66 9 1 C6.03 1 3.06 1 0 1 C0 0.67 0 0.34 0 0 Z " fill="#F0DEC1" transform="translate(85,245)"/>
<path d="M0 0 C0.33 0 0.66 0 1 0 C1 1.65 1 3.3 1 5 C0.01 4.34 -0.98 3.68 -2 3 C-1.34 2.01 -0.68 1.02 0 0 Z " fill="#9AAFBA" transform="translate(274,233)"/>
<path d="M0 0 C0.33 0 0.66 0 1 0 C1 2.31 1 4.62 1 7 C0.67 7 0.34 7 0 7 C0 4.69 0 2.38 0 0 Z " fill="#E0C2B6" transform="translate(119,246)"/>
<path d="M0 0 C2.31 0 4.62 0 7 0 C7 0.33 7 0.66 7 1 C4.69 1 2.38 1 0 1 C0 0.67 0 0.34 0 0 Z " fill="#C8E6FF" transform="translate(302,130)"/>
<path d="M0 0 C0.33 0 0.66 0 1 0 C1 2.31 1 4.62 1 7 C0.67 7 0.34 7 0 7 C0 4.69 0 2.38 0 0 Z " fill="#B0E0FF" transform="translate(263,66)"/>
<path d="M0 0 C0.33 0 0.66 0 1 0 C1 1.98 1 3.96 1 6 C0.67 6 0.34 6 0 6 C0 4.02 0 2.04 0 0 Z " fill="#3863C6" transform="translate(260,142)"/>
<path d="M0 0 C1.98 0 3.96 0 6 0 C6 0.33 6 0.66 6 1 C4.02 1 2.04 1 0 1 C0 0.67 0 0.34 0 0 Z " fill="#2A3F94" transform="translate(230,116)"/>
<path d="M0 0 C1.98 0 3.96 0 6 0 C6 0.33 6 0.66 6 1 C4.02 1 2.04 1 0 1 C0 0.67 0 0.34 0 0 Z " fill="#CDE2E2" transform="translate(186,45)"/>
<path d="M0 0 C1.98 0 3.96 0 6 0 C6 0.33 6 0.66 6 1 C4.02 1 2.04 1 0 1 C0 0.67 0 0.34 0 0 Z " fill="#E2E2E2" transform="translate(178,45)"/>
<path d="M0 0 C0.33 0 0.66 0 1 0 C1 1.98 1 3.96 1 6 C0.67 6 0.34 6 0 6 C0 4.02 0 2.04 0 0 Z " fill="#3F94AA" transform="translate(245,28)"/>
<path d="M0 0 C0.33 0 0.66 0 1 0 C1 1.65 1 3.3 1 5 C0.67 5 0.34 5 0 5 C0 3.35 0 1.7 0 0 Z " fill="#DDDDFF" transform="translate(297,140)"/>
<path d="M0 0 C0.33 0 0.66 0 1 0 C1 1.65 1 3.3 1 5 C0.67 5 0.34 5 0 5 C0 3.35 0 1.7 0 0 Z " fill="#D4D4D4" transform="translate(170,73)"/>
<path d="M0 0 C0.33 0 0.66 0 1 0 C1 1.65 1 3.3 1 5 C0.67 5 0.34 5 0 5 C0 3.35 0 1.7 0 0 Z " fill="#772200" transform="translate(124,70)"/>
<path d="M0 0 C0.33 0 0.66 0 1 0 C1 1.65 1 3.3 1 5 C0.67 5 0.34 5 0 5 C0 3.35 0 1.7 0 0 Z " fill="#C3EEEE" transform="translate(232,68)"/>
<path d="M0 0 C0.33 0 0.66 0 1 0 C1 1.65 1 3.3 1 5 C0.67 5 0.34 5 0 5 C0 3.35 0 1.7 0 0 Z " fill="#D4D4E5" transform="translate(171,68)"/>
<path d="M0 0 C0.33 0 0.66 0 1 0 C1 1.65 1 3.3 1 5 C0.67 5 0.34 5 0 5 C0 3.35 0 1.7 0 0 Z " fill="#DDDDFF" transform="translate(172,63)"/>
<path d="M0 0 C0.33 0 0.66 0 1 0 C1 1.65 1 3.3 1 5 C0.67 5 0.34 5 0 5 C0 3.35 0 1.7 0 0 Z " fill="#EEEEEE" transform="translate(173,58)"/>
<path d="M0 0 C0.33 0 0.66 0 1 0 C1 1.65 1 3.3 1 5 C0.67 5 0.34 5 0 5 C0 3.35 0 1.7 0 0 Z " fill="#C3DDDD" transform="translate(174,52)"/>
<path d="M0 0 C0.33 0 0.66 0 1 0 C1 1.65 1 3.3 1 5 C0.67 5 0.34 5 0 5 C0 3.35 0 1.7 0 0 Z " fill="#37A1D4" transform="translate(235,42)"/>
<path d="M0 0 C4 1 4 1 4 1 Z " fill="#CA6500" transform="translate(178,256)"/>
<path d="M0 0 C1 4 1 4 1 4 Z " fill="#6AD4D4" transform="translate(10,171)"/>
<path d="M0 0 C1 4 1 4 1 4 Z " fill="#FFFFFF" transform="translate(297,149)"/>
<path d="M0 0 C1 4 1 4 1 4 Z " fill="#FFFFFF" transform="translate(296,145)"/>
<path d="M0 0 C1 4 1 4 1 4 Z " fill="#4A4A75" transform="translate(30,140)"/>
<path d="M0 0 C1 4 1 4 1 4 Z " fill="#FFFFFF" transform="translate(268,84)"/>
<path d="M0 0 C1 4 1 4 1 4 Z " fill="#FFFFFF" transform="translate(154,84)"/>
<path d="M0 0 C1 4 1 4 1 4 Z " fill="#E94500" transform="translate(78,77)"/>
<path d="M0 0 C1 4 1 4 1 4 Z " fill="#FFFFFF" transform="translate(231,64)"/>
<path d="M0 0 C1 4 1 4 1 4 Z " fill="#9F9FB4" transform="translate(175,48)"/>
<path d="" fill="#E27171" transform="translate(0,0)"/>
<path d="" fill="#FF1C00" transform="translate(0,0)"/>
<path d="M0 0 C3 1 3 1 3 1 Z " fill="#477F7F" transform="translate(15,239)"/>
<path d="" fill="#AAFFFF" transform="translate(0,0)"/>
<path d="M0 0 C0.66 0 1.32 0 2 0 C1.67 0.66 1.34 1.32 1 2 C0.67 1.34 0.34 0.68 0 0 Z " fill="#7FFFFF" transform="translate(332,133)"/>
<path d="M0 0 C3 1 3 1 3 1 Z " fill="#383871" transform="translate(236,117)"/>
<path d="M0 0 C3 1 3 1 3 1 Z " fill="#479CB8" transform="translate(52,117)"/>
<path d="" fill="#E2C638" transform="translate(0,0)"/>
<path d="" fill="#FFC638" transform="translate(0,0)"/>
<path d="" fill="#FFC68D" transform="translate(0,0)"/>
<path d="" fill="#FFFFAA" transform="translate(0,0)"/>
<path d="" fill="#AA4700" transform="translate(0,0)"/>
<path d="" fill="#E24700" transform="translate(0,0)"/>
<path d="" fill="#C63800" transform="translate(0,0)"/>
<path d="" fill="#C6E2FF" transform="translate(0,0)"/>
<path d="" fill="#E2FFFF" transform="translate(0,0)"/>
<path d="" fill="#47B8E2" transform="translate(0,0)"/>
<path d="" fill="#80AAAA" transform="translate(0,0)"/>
<path d="M0 0 C3 1 3 1 3 1 Z " fill="#8D1C00" transform="translate(109,41)"/>
<path d="" fill="#71B8B8" transform="translate(0,0)"/>
<path d="" fill="#1C8DE2" transform="translate(0,0)"/>
<path d="" fill="#1CB8B8" transform="translate(0,0)"/>
<path d="M0 0 C2 1 2 1 2 1 Z " fill="#D45555" transform="translate(94,244)"/>
<path d="M0 0 C2 1 2 1 2 1 Z " fill="#FFD4D4" transform="translate(83,244)"/>
<path d="M0 0 C2 1 2 1 2 1 Z " fill="#6ABFBF" transform="translate(268,239)"/>
<path d="M0 0 C2 1 2 1 2 1 Z " fill="#007FFF" transform="translate(16,163)"/>
<path d="M0 0 C2 1 2 1 2 1 Z " fill="#40BFBF" transform="translate(266,162)"/>
<path d="M0 0 C2 1 2 1 2 1 Z " fill="#8080FF" transform="translate(264,161)"/>
<path d="M0 0 C2 1 2 1 2 1 Z " fill="#2AD4D4" transform="translate(19,161)"/>
<path d="" fill="#7F7FFF" transform="translate(0,0)"/>
<path d="" fill="#D4D4FF" transform="translate(0,0)"/>
<path d="" fill="#AAD4D4" transform="translate(0,0)"/>
<path d="" fill="#95FFFF" transform="translate(0,0)"/>
<path d="M0 0 C2 1 2 1 2 1 Z " fill="#D4D4FF" transform="translate(328,130)"/>
<path d="M0 0 C2 1 2 1 2 1 Z " fill="#D4FFFF" transform="translate(323,130)"/>
<path d="M0 0 C2 1 2 1 2 1 Z " fill="#007FFF" transform="translate(326,129)"/>
<path d="M0 0 C2 1 2 1 2 1 Z " fill="#004040" transform="translate(247,123)"/>
<path d="M0 0 C2 1 2 1 2 1 Z " fill="#0000FF" transform="translate(43,122)"/>
<path d="M0 0 C2 1 2 1 2 1 Z " fill="#2A2A55" transform="translate(243,120)"/>
<path d="M0 0 C2 1 2 1 2 1 Z " fill="#008080" transform="translate(46,120)"/>
<path d="M0 0 C2 1 2 1 2 1 Z " fill="#2AAAAA" transform="translate(241,119)"/>
<path d="M0 0 C2 1 2 1 2 1 Z " fill="#2A2AAA" transform="translate(48,119)"/>
<path d="M0 0 C2 1 2 1 2 1 Z " fill="#2AAAD4" transform="translate(239,118)"/>
<path d="M0 0 C2 1 2 1 2 1 Z " fill="#808080" transform="translate(50,118)"/>
<path d="M0 0 C2 1 2 1 2 1 Z " fill="#FF5555" transform="translate(124,91)"/>
<path d="M0 0 C2 1 2 1 2 1 Z " fill="#FFFF55" transform="translate(121,89)"/>
<path d="M0 0 C2 1 2 1 2 1 Z " fill="#FFFFD4" transform="translate(74,88)"/>
<path d="" fill="#FF8000" transform="translate(0,0)"/>
<path d="" fill="#956A00" transform="translate(0,0)"/>
<path d="" fill="#95BFFF" transform="translate(0,0)"/>
<path d="" fill="#FFFFFF" transform="translate(0,0)"/>
<path d="" fill="#0000FF" transform="translate(0,0)"/>
<path d="" fill="#808080" transform="translate(0,0)"/>
<path d="" fill="#AA5500" transform="translate(0,0)"/>
<path d="" fill="#6AD4D4" transform="translate(0,0)"/>
<path d="M0 0 C2 1 2 1 2 1 Z " fill="#6A9595" transform="translate(233,48)"/>
<path d="M0 0 C2 1 2 1 2 1 Z " fill="#80BFBF" transform="translate(230,46)"/>
<path d="M0 0 C2 1 2 1 2 1 Z " fill="#7FFFFF" transform="translate(184,46)"/>
<path d="M0 0 C2 1 2 1 2 1 Z " fill="#808080" transform="translate(263,44)"/>
<path d="M0 0 C2 1 2 1 2 1 Z " fill="#FF0000" transform="translate(114,44)"/>
<path d="M0 0 C2 1 2 1 2 1 Z " fill="#6A9595" transform="translate(265,43)"/>
<path d="M0 0 C2 1 2 1 2 1 Z " fill="#FF4000" transform="translate(86,43)"/>
<path d="M0 0 C2 1 2 1 2 1 Z " fill="#00BFBF" transform="translate(267,42)"/>
<path d="" fill="#6AD4D4" transform="translate(0,0)"/>
<path d="" fill="#6A9595" transform="translate(0,0)"/>
<path d="M0 0 C2 1 2 1 2 1 Z " fill="#2AD4D4" transform="translate(257,33)"/>
<path d="M0 0 C2 1 2 1 2 1 Z " fill="#808080" transform="translate(259,32)"/>
<path d="" fill="#557FAA" transform="translate(0,0)"/>
<path d="" fill="#2AD4D4" transform="translate(0,0)"/>
<path d="" fill="#FF0000" transform="translate(0,0)"/>
<path d="" fill="#000000" transform="translate(0,0)"/>
<path d="" fill="#FF8080" transform="translate(0,0)"/>
<path d="" fill="#FFFFFF" transform="translate(0,0)"/>
<path d="" fill="#FFFFFF" transform="translate(0,0)"/>
<path d="" fill="#5555AA" transform="translate(0,0)"/>
<path d="" fill="#808080" transform="translate(0,0)"/>
<path d="" fill="#808080" transform="translate(0,0)"/>
<path d="" fill="#808080" transform="translate(0,0)"/>
<path d="" fill="#808080" transform="translate(0,0)"/>
<path d="" fill="#8080FF" transform="translate(0,0)"/>
<path d="" fill="#5555AA" transform="translate(0,0)"/>
<path d="" fill="#5555AA" transform="translate(0,0)"/>
<path d="" fill="#808080" transform="translate(0,0)"/>
<path d="" fill="#5555AA" transform="translate(0,0)"/>
<path d="" fill="#55AAAA" transform="translate(0,0)"/>
<path d="" fill="#AAAAFF" transform="translate(0,0)"/>
<path d="" fill="#FFFFFF" transform="translate(0,0)"/>
<path d="" fill="#FFFFFF" transform="translate(0,0)"/>
<path d="" fill="#FFFFFF" transform="translate(0,0)"/>
<path d="" fill="#FFFFFF" transform="translate(0,0)"/>
<path d="" fill="#FFFFFF" transform="translate(0,0)"/>
<path d="" fill="#FFFFFF" transform="translate(0,0)"/>
<path d="" fill="#FFFFFF" transform="translate(0,0)"/>
<path d="" fill="#5555AA" transform="translate(0,0)"/>
<path d="" fill="#808080" transform="translate(0,0)"/>
<path d="" fill="#555555" transform="translate(0,0)"/>
<path d="" fill="#008080" transform="translate(0,0)"/>
<path d="" fill="#5555AA" transform="translate(0,0)"/>
<path d="" fill="#008080" transform="translate(0,0)"/>
<path d="" fill="#5555AA" transform="translate(0,0)"/>
<path d="" fill="#0000FF" transform="translate(0,0)"/>
<path d="" fill="#5555AA" transform="translate(0,0)"/>
<path d="" fill="#555555" transform="translate(0,0)"/>
<path d="" fill="#5555AA" transform="translate(0,0)"/>
<path d="" fill="#808080" transform="translate(0,0)"/>
<path d="" fill="#555555" transform="translate(0,0)"/>
<path d="" fill="#808080" transform="translate(0,0)"/>
<path d="" fill="#FFFFAA" transform="translate(0,0)"/>
<path d="" fill="#FFFFFF" transform="translate(0,0)"/>
<path d="" fill="#FFFFAA" transform="translate(0,0)"/>
<path d="" fill="#FFAA55" transform="translate(0,0)"/>
<path d="" fill="#FFFF80" transform="translate(0,0)"/>
<path d="" fill="#FFFF80" transform="translate(0,0)"/>
<path d="" fill="#FFAA55" transform="translate(0,0)"/>
<path d="" fill="#55AAAA" transform="translate(0,0)"/>
<path d="" fill="#80FFFF" transform="translate(0,0)"/>
<path d="" fill="#55FFFF" transform="translate(0,0)"/>
<path d="" fill="#55AAFF" transform="translate(0,0)"/>
<path d="" fill="#55AAAA" transform="translate(0,0)"/>
<path d="" fill="#AA5500" transform="translate(0,0)"/>
<path d="" fill="#55FFFF" transform="translate(0,0)"/>
<path d="" fill="#FFFFFF" transform="translate(0,0)"/>
<path d="" fill="#FFFFFF" transform="translate(0,0)"/>
<path d="" fill="#808080" transform="translate(0,0)"/>
<path d="" fill="#808000" transform="translate(0,0)"/>
<path d="" fill="#55AAAA" transform="translate(0,0)"/>
<path d="" fill="#800000" transform="translate(0,0)"/>
<path d="" fill="#80FFFF" transform="translate(0,0)"/>
<path d="" fill="#800000" transform="translate(0,0)"/>
<path d="" fill="#00FFFF" transform="translate(0,0)"/>
<path d="" fill="#AA5500" transform="translate(0,0)"/>
<path d="" fill="#FF8000" transform="translate(0,0)"/>
<path d="" fill="#AA5500" transform="translate(0,0)"/>
<path d="" fill="#80FFFF" transform="translate(0,0)"/>
<path d="" fill="#80FFFF" transform="translate(0,0)"/>
<path d="" fill="#808080" transform="translate(0,0)"/>
<path d="" fill="#000000" transform="translate(0,0)"/>
</svg>
